<svg width="38" height="63" viewBox="0 0 38 63" fill="none" xmlns="http://www.w3.org/2000/svg">
<g clip-path="url(#clip0_9_523)">
<path d="M11.1377 16.9043H18.9164C20.8085 16.9043 23.304 16.9043 24.5927 17.6868C26.0059 18.5278 27.1155 20.0578 27.1155 22.164C27.1155 24.4454 25.9164 26.1585 23.9308 26.9682V27.0305C26.5743 27.5717 28.0148 29.5533 28.0148 32.1968C28.0148 35.3503 25.7606 38.3559 21.4976 38.3559H11.1339V16.9082L11.1377 16.9043ZM13.9915 26.1273H19.7028C22.9459 26.1273 24.2695 24.9555 24.2695 22.7013C24.2695 19.7269 22.1672 19.3064 19.7028 19.3064H13.9915V26.1234V26.1273ZM13.9915 35.9499H21.1433C23.6038 35.9499 25.1689 34.4471 25.1689 32.1073C25.1689 29.312 22.9147 28.5333 20.5126 28.5333H13.9954V35.9538L13.9915 35.9499Z" fill="#231F20"/>
<path d="M35.3146 27.6341C35.3146 36.6429 28.0109 43.9466 18.9981 43.9466C9.98532 43.9466 2.68555 36.6468 2.68555 27.6341C2.68555 18.6213 9.98922 11.3254 18.9981 11.3254C28.007 11.3254 35.3146 18.6291 35.3146 27.6379V27.6341ZM18.9981 8.83374C8.6227 8.83374 0.209473 17.247 0.209473 27.6263C0.209473 38.0056 8.6227 46.4149 18.9981 46.4149C29.3735 46.4149 37.7906 38.0017 37.7906 27.6263C37.7906 17.2509 29.3774 8.83763 18.9981 8.83763V8.83374Z" fill="#231F20"/>
<path d="M37.7517 50.3782H0.248352V52.8426H37.7517V50.3782Z" fill="#231F20"/>
<path d="M36.5798 47.6646C36.6265 47.6646 36.6693 47.6646 36.7122 47.6607C36.7511 47.6607 36.79 47.649 36.8212 47.6373C36.8562 47.6218 36.8796 47.5984 36.899 47.5712C36.9185 47.54 36.9263 47.5011 36.9263 47.4505C36.9263 47.4076 36.9185 47.3687 36.9029 47.3454C36.8874 47.3181 36.864 47.2986 36.8367 47.287C36.8095 47.2714 36.7822 47.2636 36.7433 47.2558C36.7083 47.2558 36.6771 47.2519 36.6382 47.2519H36.3696V47.6685H36.5837L36.5798 47.6646ZM36.6693 47.0845C36.8251 47.0845 36.938 47.1157 37.0158 47.1779C37.0898 47.2402 37.1287 47.3337 37.1287 47.4622C37.1287 47.5828 37.0937 47.6646 37.0314 47.723C36.9652 47.7775 36.8835 47.8086 36.7822 47.8203L37.156 48.3965H36.938L36.5798 47.832H36.3657V48.3965H36.1593V47.0884H36.6693V47.0845ZM35.7466 48.1123C35.7895 48.2291 35.8557 48.3342 35.9413 48.4199C36.0231 48.5055 36.1204 48.5717 36.2333 48.6223C36.3423 48.669 36.4669 48.6924 36.5954 48.6924C36.7238 48.6924 36.8484 48.669 36.9574 48.6223C37.0703 48.5717 37.1677 48.5055 37.2494 48.4199C37.3312 48.3342 37.3974 48.233 37.4402 48.1123C37.4869 47.9955 37.5142 47.8709 37.5142 47.7347C37.5142 47.5984 37.4908 47.4738 37.4402 47.357C37.3935 47.2402 37.3273 47.139 37.2494 47.0534C37.1638 46.9677 37.0664 46.9015 36.9574 46.8548C36.8484 46.8081 36.7238 46.7808 36.5954 46.7808C36.4669 46.7808 36.3423 46.8081 36.2333 46.8548C36.1204 46.9054 36.0192 46.9716 35.9413 47.0534C35.8557 47.139 35.7934 47.2402 35.7466 47.357C35.6999 47.4738 35.6766 47.5945 35.6766 47.7347C35.6766 47.8748 35.6999 47.9955 35.7466 48.1123ZM35.5598 47.2908C35.6182 47.1546 35.6999 47.0417 35.8011 46.9405C35.9024 46.8392 36.0231 46.7653 36.1593 46.7069C36.2956 46.6485 36.4435 46.6212 36.5915 46.6212C36.7394 46.6212 36.8912 46.6485 37.0314 46.7069C37.1638 46.7653 37.2845 46.8392 37.3818 46.9405C37.483 47.0417 37.5687 47.1585 37.6232 47.2908C37.6855 47.4271 37.7127 47.5751 37.7127 47.7347C37.7127 47.8943 37.6855 48.0422 37.6232 48.1785C37.5648 48.3187 37.483 48.4355 37.3818 48.5367C37.2806 48.6418 37.1638 48.7158 37.0314 48.7742C36.8912 48.8287 36.7472 48.8559 36.5915 48.8559C36.4357 48.8559 36.2956 48.8287 36.1593 48.7742C36.0231 48.7158 35.9024 48.6418 35.8011 48.5367C35.6999 48.4355 35.6182 48.3187 35.5598 48.1785C35.4975 48.0422 35.4741 47.8943 35.4741 47.7347C35.4741 47.5751 35.4975 47.4271 35.5598 47.2908Z" fill="#231F20"/>
<path d="M4.78397 57.9037C4.69443 57.7636 4.58542 57.639 4.45305 57.53C4.32068 57.421 4.17274 57.3392 4.00533 57.2808C3.83792 57.2224 3.66273 57.1913 3.47975 57.1913C3.14493 57.1913 2.86073 57.2575 2.63103 57.3859C2.39744 57.5144 2.21056 57.6896 2.06262 57.9037C1.91857 58.1218 1.81345 58.367 1.74727 58.6435C1.68108 58.9199 1.64994 59.208 1.64994 59.5039C1.64994 59.7997 1.68108 60.0645 1.74727 60.3292C1.81345 60.5978 1.91857 60.8392 2.06262 61.0534C2.20667 61.2675 2.39744 61.4388 2.63103 61.5673C2.86462 61.6957 3.14883 61.7619 3.47975 61.7619C3.93136 61.7619 4.28564 61.6218 4.54259 61.3453C4.79955 61.0689 4.95528 60.703 5.00978 60.2513H6.44637C6.40744 60.6718 6.31011 61.0534 6.15438 61.396C5.99866 61.7347 5.78842 62.0267 5.53147 62.2641C5.27452 62.5055 4.97085 62.6846 4.62435 62.8131C4.27786 62.9377 3.89632 63.0039 3.47975 63.0039C2.96195 63.0039 2.49866 62.9143 2.08598 62.7352C1.6733 62.5561 1.3268 62.307 1.0426 61.9955C0.758394 61.6802 0.540374 61.3103 0.392432 60.8859C0.240597 60.4616 0.166626 60.0022 0.166626 59.5116C0.166626 59.0211 0.240597 58.5383 0.392432 58.1101C0.544267 57.6779 0.762287 57.3042 1.0426 56.9811C1.3268 56.6618 1.6733 56.4088 2.08598 56.2258C2.49866 56.0428 2.96195 55.9532 3.47975 55.9532C3.8496 55.9532 4.20389 56.0078 4.53481 56.1129C4.86573 56.2219 5.16162 56.3776 5.42246 56.5801C5.68331 56.7864 5.90133 57.0395 6.06873 57.3392C6.24003 57.6429 6.34515 57.9894 6.38798 58.3787H4.95138C4.92802 58.2074 4.86962 58.0517 4.78008 57.9115L4.78397 57.9037Z" fill="#231F20"/>
<path d="M8.65383 61.6763C8.85628 61.8709 9.14437 61.9683 9.52202 61.9683C9.79454 61.9683 10.0242 61.9021 10.2228 61.7658C10.4175 61.6296 10.5381 61.4855 10.581 61.3376H11.7606C11.5698 61.9216 11.2817 62.342 10.8924 62.5951C10.5031 62.8481 10.0281 62.9727 9.4753 62.9727C9.08987 62.9727 8.74337 62.9104 8.43581 62.7897C8.12825 62.6652 7.8674 62.4938 7.65327 62.2641C7.43915 62.0383 7.27563 61.7658 7.15884 61.4505C7.04204 61.1351 6.98364 60.7886 6.98364 60.411C6.98364 60.0333 7.04204 59.7063 7.16273 59.391C7.28342 59.0756 7.45083 58.8031 7.67274 58.5734C7.89465 58.3437 8.1555 58.1607 8.46306 58.0322C8.76673 57.8999 9.10544 57.8337 9.47919 57.8337C9.89576 57.8337 10.2578 57.9154 10.5654 58.0751C10.873 58.2347 11.126 58.4527 11.3246 58.7213C11.5231 58.9939 11.6672 59.3014 11.7528 59.6479C11.8424 59.9944 11.8735 60.3565 11.8463 60.7341H8.32291C8.34237 61.1702 8.45138 61.4855 8.65383 61.6802V61.6763ZM10.1683 59.1068C10.0087 58.9316 9.76339 58.842 9.43636 58.842C9.22224 58.842 9.04315 58.8771 8.903 58.951C8.76284 59.025 8.64604 59.1145 8.56429 59.2197C8.47864 59.3287 8.42024 59.4416 8.3852 59.5584C8.35016 59.6791 8.33069 59.7842 8.32291 59.8776H10.5031C10.4408 59.5389 10.3279 59.2781 10.1683 59.1029V59.1068Z" fill="#231F20"/>
<path d="M13.7267 57.966V58.8732H13.7462C13.8085 58.7213 13.8941 58.5812 14.0031 58.4527C14.1082 58.3242 14.2328 58.2152 14.373 58.1218C14.5131 58.0322 14.6611 57.9583 14.8168 57.9077C14.9725 57.857 15.136 57.8337 15.3073 57.8337C15.3969 57.8337 15.4942 57.8493 15.5993 57.8804V59.1262C15.537 59.1145 15.4592 59.1029 15.3735 59.0951C15.284 59.0873 15.2022 59.0795 15.1205 59.0795C14.8752 59.0795 14.6689 59.1223 14.4975 59.2041C14.3262 59.2858 14.19 59.3987 14.0849 59.5389C13.9798 59.6791 13.9058 59.8465 13.863 60.0333C13.8201 60.2241 13.7968 60.4266 13.7968 60.6485V62.8481H12.4536V57.966H13.7306H13.7267Z" fill="#231F20"/>
<path d="M19.1499 57.966V58.8653H18.1688V61.283C18.1688 61.5088 18.2077 61.6606 18.2817 61.7346C18.3557 61.8086 18.5075 61.8475 18.7333 61.8475C18.8073 61.8475 18.8813 61.8475 18.9513 61.8397C19.0214 61.8319 19.0876 61.8242 19.1499 61.8125V62.852C19.037 62.8714 18.9085 62.8831 18.7722 62.8909C18.6321 62.8987 18.4997 62.8987 18.3674 62.8987C18.161 62.8987 17.9625 62.8831 17.7756 62.8559C17.5887 62.8286 17.4252 62.7741 17.285 62.6923C17.1449 62.6106 17.032 62.4938 16.9502 62.342C16.8685 62.1901 16.8256 61.9916 16.8256 61.7463V58.8653H16.012V57.966H16.8256V56.5021H18.1688V57.966H19.1499Z" fill="#231F20"/>
<path d="M19.8624 57.2069V56.1012H21.2055V57.2069H19.8624ZM21.2055 57.9622V62.8442H19.8624V57.9622H21.2055Z" fill="#231F20"/>
<path d="M21.8557 58.8615V57.9622H22.6577V57.5845C22.6577 57.1485 22.794 56.7942 23.0626 56.5178C23.3351 56.2413 23.7439 56.1012 24.289 56.1012C24.4096 56.1012 24.5264 56.1051 24.6471 56.1168C24.7678 56.1246 24.8846 56.1323 24.9975 56.1401V57.1407C24.8418 57.1212 24.6783 57.1134 24.507 57.1134C24.324 57.1134 24.1916 57.1563 24.1138 57.2419C24.0359 57.3276 23.997 57.4716 23.997 57.6702V57.9622H24.9235V58.8615H23.997V62.8481H22.6538V58.8615H21.8518H21.8557ZM25.7372 57.2069V56.1012H27.0804V57.2069H25.7372ZM27.0804 57.9622V62.8442H25.7372V57.9622H27.0804Z" fill="#231F20"/>
<path d="M29.4085 61.6763C29.611 61.8709 29.8991 61.9683 30.2767 61.9683C30.5492 61.9683 30.7789 61.9021 30.9775 61.7658C31.1722 61.6296 31.2928 61.4855 31.3357 61.3376H32.5153C32.3245 61.9216 32.0364 62.342 31.6471 62.5951C31.2578 62.8481 30.7828 62.9727 30.23 62.9727C29.8446 62.9727 29.4981 62.9104 29.1905 62.7897C28.8829 62.6652 28.6221 62.4938 28.408 62.2641C28.1938 62.0383 28.0264 61.7658 27.9135 61.4505C27.7967 61.1351 27.7383 60.7886 27.7383 60.411C27.7383 60.0333 27.7967 59.7063 27.9174 59.391C28.0381 59.0756 28.2055 58.8031 28.4274 58.5734C28.6494 58.3437 28.9102 58.1607 29.2178 58.0322C29.5214 57.8999 29.8601 57.8337 30.2339 57.8337C30.6505 57.8337 31.0125 57.9154 31.3201 58.0751C31.6277 58.2347 31.8807 58.4527 32.0793 58.7213C32.2778 58.9939 32.4219 59.3014 32.5075 59.6479C32.5971 59.9944 32.6282 60.3565 32.601 60.7341H29.0776C29.0971 61.1702 29.2061 61.4855 29.4085 61.6802V61.6763ZM30.923 59.1068C30.7634 58.9316 30.5181 58.842 30.1911 58.842C29.9769 58.842 29.7979 58.8771 29.6577 58.951C29.5175 59.025 29.4046 59.1145 29.319 59.2197C29.2333 59.3287 29.1749 59.4416 29.1399 59.5584C29.1049 59.6791 29.0854 59.7842 29.0776 59.8776H31.2578C31.1955 59.5389 31.0826 59.2781 30.923 59.1029V59.1068Z" fill="#231F20"/>
<path d="M34.6332 61.6763C34.8356 61.8709 35.1237 61.9683 35.5014 61.9683C35.7739 61.9683 36.0036 61.9021 36.2022 61.7658C36.3968 61.6296 36.5175 61.4855 36.5603 61.3376H37.74C37.5492 61.9216 37.2611 62.342 36.8718 62.5951C36.4825 62.8481 36.0075 62.9727 35.4547 62.9727C35.0692 62.9727 34.7227 62.9104 34.4152 62.7897C34.1076 62.6652 33.8468 62.4938 33.6326 62.2641C33.4185 62.0383 33.2511 61.7658 33.1382 61.4505C33.0214 61.1351 32.963 60.7886 32.963 60.411C32.963 60.0333 33.0214 59.7063 33.1421 59.391C33.2628 59.0756 33.4302 58.8031 33.6521 58.5734C33.874 58.3437 34.1349 58.1607 34.4424 58.0322C34.7461 57.8999 35.0848 57.8337 35.4586 57.8337C35.8751 57.8337 36.2372 57.9154 36.5448 58.0751C36.8523 58.2347 37.1054 58.4527 37.3039 58.7213C37.5025 58.9939 37.6465 59.3014 37.7322 59.6479C37.8217 59.9944 37.8529 60.3565 37.8256 60.7341H34.3023C34.3217 61.1702 34.4308 61.4855 34.6332 61.6802V61.6763ZM36.1477 59.1068C35.988 58.9316 35.7428 58.842 35.4157 58.842C35.2016 58.842 35.0225 58.8771 34.8824 58.951C34.7422 59.025 34.6293 59.1145 34.5437 59.2197C34.458 59.3287 34.3996 59.4416 34.3646 59.5584C34.3295 59.6791 34.3101 59.7842 34.3023 59.8776H36.4825C36.4202 59.5389 36.3073 59.2781 36.1477 59.1029V59.1068Z" fill="#231F20"/>
<path d="M29.72 57.2574L30.7439 55.743H32.4219L30.7789 57.2574H29.72Z" fill="#231F20"/>
<path d="M4.39462 0V1.02391H1.46693V2.21134H4.15324V3.15739H1.46693V4.51612H4.45691V5.54004H0.248352V0H4.39462Z" fill="#231F20"/>
<path d="M6.21275 1.53003V2.09065H6.23611C6.37627 1.85706 6.55536 1.68965 6.78116 1.58064C7.00697 1.47163 7.23277 1.42102 7.46637 1.42102C7.76225 1.42102 8.00363 1.45995 8.1905 1.54171C8.38127 1.62347 8.52921 1.73248 8.63822 1.87653C8.74723 2.02057 8.8251 2.19188 8.86792 2.39822C8.91075 2.60456 8.93411 2.83036 8.93411 3.07564V5.54393H7.83233V3.27808C7.83233 2.94716 7.78172 2.69799 7.6766 2.53837C7.57148 2.37486 7.3885 2.2931 7.12376 2.2931C6.82399 2.2931 6.60597 2.38264 6.4736 2.56173C6.33734 2.74082 6.27115 3.03281 6.27115 3.4416V5.54393H5.16937V1.53003H6.21665H6.21275Z" fill="#231F20"/>
<path d="M11.9708 1.53003V2.26585H11.1649V4.25528C11.1649 4.44215 11.196 4.56673 11.2583 4.62902C11.3206 4.69132 11.4452 4.72246 11.6321 4.72246C11.6944 4.72246 11.7528 4.72246 11.8112 4.71467C11.8696 4.71078 11.9241 4.703 11.9747 4.69132V5.54393C11.8813 5.5595 11.7761 5.57118 11.6632 5.57507C11.5503 5.57897 11.4374 5.58286 11.3284 5.58286C11.1571 5.58286 10.9975 5.57118 10.8418 5.54782C10.6899 5.52446 10.5537 5.47774 10.4369 5.41156C10.3201 5.34537 10.2266 5.24804 10.1605 5.12346C10.0943 4.99888 10.0592 4.83536 10.0592 4.63292V2.26585H9.39349V1.53003H10.0592V0.327026H11.161V1.53003H11.9669H11.9708Z" fill="#231F20"/>
<path d="M16.8334 4.58231C17.0008 4.74193 17.2383 4.82369 17.5459 4.82369C17.7678 4.82369 17.9586 4.76918 18.1221 4.65628C18.2817 4.54338 18.379 4.42658 18.418 4.302H19.3874C19.2316 4.78475 18.9942 5.12736 18.6749 5.3337C18.3557 5.54004 17.9663 5.64515 17.5108 5.64515C17.1955 5.64515 16.9113 5.59454 16.6582 5.49332C16.4052 5.39209 16.191 5.24805 16.0158 5.06117C15.8407 4.8743 15.7044 4.65239 15.6071 4.39154C15.5097 4.13459 15.463 3.84649 15.463 3.53893C15.463 3.23136 15.5136 2.95884 15.611 2.70189C15.7083 2.44493 15.8484 2.21913 16.0314 2.03225C16.2144 1.84149 16.4285 1.69355 16.6816 1.58454C16.9308 1.47553 17.2111 1.42102 17.5147 1.42102C17.8573 1.42102 18.1532 1.4872 18.4063 1.61957C18.6593 1.75194 18.8696 1.92714 19.0331 2.15294C19.1966 2.37486 19.3134 2.62792 19.3874 2.91212C19.4613 3.19632 19.4847 3.4961 19.4652 3.80367H16.5687C16.5843 4.16184 16.6738 4.41879 16.8412 4.57841L16.8334 4.58231ZM18.0792 2.47219C17.9469 2.32814 17.7483 2.25417 17.4758 2.25417C17.3006 2.25417 17.1527 2.28531 17.0359 2.34371C16.9191 2.40211 16.8256 2.47608 16.7556 2.56562C16.6855 2.65517 16.6349 2.74861 16.6076 2.84594C16.5804 2.94327 16.5609 3.03281 16.557 3.11067H18.3518C18.3012 2.83036 18.2077 2.62013 18.0754 2.47219H18.0792Z" fill="#231F20"/>
<path d="M13.7773 1.53003V2.27753H13.7928C13.8434 2.15294 13.9135 2.03615 14.0031 1.93103C14.0926 1.82591 14.1938 1.73637 14.3067 1.65851C14.4196 1.58454 14.5403 1.52614 14.6727 1.48331C14.8012 1.44049 14.9374 1.42102 15.0776 1.42102C15.1516 1.42102 15.2294 1.4327 15.319 1.45995V2.48387C15.2684 2.47219 15.2061 2.4644 15.1321 2.45661C15.0581 2.44883 14.988 2.44493 14.9219 2.44493C14.7194 2.44493 14.5481 2.47997 14.408 2.54616C14.2678 2.61234 14.1549 2.70578 14.0692 2.82258C13.9836 2.93937 13.9213 3.07564 13.8863 3.23136C13.8512 3.38709 13.8318 3.5545 13.8318 3.73748V5.54782H12.73V1.53003H13.7773Z" fill="#231F20"/>
<path d="M21.0225 1.53003V2.04393H21.0381C21.1743 1.82591 21.3418 1.67019 21.552 1.56896C21.7583 1.47163 21.988 1.42102 22.2372 1.42102C22.5525 1.42102 22.8251 1.47942 23.0509 1.60011C23.2767 1.7208 23.4674 1.87653 23.6193 2.07508C23.7711 2.26974 23.8801 2.49944 23.9541 2.76028C24.0281 3.02113 24.0631 3.29365 24.0631 3.57786C24.0631 3.84649 24.0281 4.10734 23.9541 4.35261C23.8801 4.60177 23.7711 4.81979 23.6232 5.01445C23.4752 5.20522 23.2922 5.35706 23.0703 5.47385C22.8484 5.58676 22.5915 5.64515 22.2995 5.64515C22.0503 5.64515 21.8206 5.59454 21.6143 5.49332C21.404 5.39209 21.2327 5.24415 21.0965 5.0456H21.0809V6.94938H19.9791V1.53003H21.0264H21.0225ZM22.4552 4.71468C22.5759 4.64071 22.6771 4.54727 22.7511 4.43047C22.8251 4.31368 22.8796 4.17741 22.9107 4.02169C22.9419 3.86596 22.9574 3.71023 22.9574 3.54671C22.9574 3.3832 22.9419 3.22747 22.9068 3.07174C22.8718 2.91601 22.8173 2.77975 22.7394 2.65517C22.6615 2.53448 22.5603 2.43715 22.4396 2.35928C22.3189 2.28531 22.171 2.24638 21.9919 2.24638C21.8128 2.24638 21.661 2.28531 21.5364 2.35928C21.4157 2.43326 21.3145 2.53059 21.2405 2.65127C21.1666 2.77196 21.1121 2.90823 21.0809 3.06396C21.0498 3.21968 21.0342 3.37931 21.0342 3.54671C21.0342 3.71412 21.0498 3.86596 21.0848 4.02169C21.1198 4.17741 21.1743 4.31368 21.2483 4.43047C21.3223 4.54727 21.4235 4.64071 21.5481 4.71468C21.6727 4.78865 21.8206 4.82369 21.9997 4.82369C22.1788 4.82369 22.3306 4.78865 22.4552 4.71468Z" fill="#231F20"/>
<path d="M25.7683 1.53003V2.27753H25.7839C25.8345 2.15294 25.9046 2.03615 25.9941 1.93103C26.0837 1.82591 26.1849 1.73637 26.2978 1.65851C26.4107 1.58454 26.5314 1.52614 26.6638 1.48331C26.7923 1.44049 26.9285 1.42102 27.0687 1.42102C27.1426 1.42102 27.2205 1.4327 27.3101 1.45995V2.48387C27.2594 2.47219 27.1972 2.4644 27.1232 2.45661C27.0492 2.44883 26.9791 2.44493 26.9129 2.44493C26.7105 2.44493 26.5392 2.47997 26.399 2.54616C26.2589 2.61234 26.146 2.70578 26.0603 2.82258C25.9747 2.93937 25.9124 3.07564 25.8774 3.23136C25.8423 3.38709 25.8228 3.5545 25.8228 3.73748V5.54782H24.7211V1.53003H25.7683Z" fill="#231F20"/>
<path d="M27.7695 0.907118V0H28.8712V0.907118H27.7695ZM28.8712 1.52614V5.54004H27.7695V1.53003H28.8712V1.52614Z" fill="#231F20"/>
<path d="M30.6699 4.54724C30.7205 4.63289 30.7828 4.70297 30.8607 4.75748C30.9385 4.81198 31.0281 4.85091 31.1293 4.87817C31.2305 4.90542 31.3357 4.9171 31.4447 4.9171C31.5225 4.9171 31.6043 4.90931 31.6899 4.88985C31.7756 4.87038 31.8535 4.84313 31.9235 4.80419C31.9936 4.76526 32.052 4.71465 32.0987 4.64847C32.1454 4.58228 32.1688 4.50052 32.1688 4.40319C32.1688 4.23579 32.0598 4.1151 31.8379 4.02945C31.616 3.94769 31.3123 3.86204 30.9191 3.78028C30.7595 3.74524 30.6037 3.70242 30.448 3.6518C30.2923 3.60119 30.1599 3.5389 30.0392 3.45714C29.9185 3.37539 29.8251 3.27416 29.7511 3.15347C29.6771 3.03278 29.6421 2.88484 29.6421 2.70575C29.6421 2.4488 29.6927 2.23468 29.7939 2.06727C29.8952 1.89986 30.0275 1.77138 30.1949 1.67405C30.3624 1.57672 30.5453 1.51054 30.7556 1.47161C30.9619 1.43267 31.176 1.41321 31.3941 1.41321C31.6121 1.41321 31.8223 1.43267 32.0286 1.4755C32.2311 1.51832 32.4141 1.5884 32.5776 1.68573C32.7372 1.78306 32.8696 1.91543 32.9786 2.07895C33.0837 2.24246 33.1499 2.4488 33.1694 2.69797H32.1221C32.1065 2.48384 32.0248 2.34369 31.8807 2.26582C31.7367 2.19185 31.5654 2.15292 31.3668 2.15292C31.3045 2.15292 31.2383 2.15292 31.1644 2.1646C31.0904 2.17238 31.0242 2.18796 30.9658 2.21521C30.9074 2.24246 30.8568 2.2775 30.814 2.32811C30.7711 2.37872 30.7517 2.44491 30.7517 2.52667C30.7517 2.624 30.7867 2.70575 30.8607 2.76805C30.9347 2.83034 31.0281 2.88095 31.1449 2.91988C31.2617 2.95881 31.3941 2.99385 31.5459 3.025C31.6977 3.05614 31.8496 3.09118 32.0053 3.12622C32.1649 3.16126 32.3206 3.20798 32.4764 3.25859C32.6282 3.3092 32.7645 3.37928 32.8852 3.46493C33.0058 3.55058 33.0993 3.6557 33.1733 3.78417C33.2472 3.91265 33.2823 4.06838 33.2823 4.25525C33.2823 4.51999 33.2278 4.7419 33.1226 4.9171C33.0175 5.09619 32.8774 5.24023 32.7061 5.34924C32.5348 5.45825 32.3401 5.53612 32.1182 5.57894C31.8963 5.62177 31.6744 5.64513 31.4486 5.64513C31.2228 5.64513 30.9892 5.62177 30.7634 5.57505C30.5414 5.52833 30.3429 5.45047 30.1677 5.34146C29.9925 5.23245 29.8523 5.0884 29.7394 4.90931C29.6265 4.73022 29.5681 4.50831 29.5565 4.23968H30.6037C30.6037 4.36037 30.6271 4.46159 30.6777 4.54724H30.6699Z" fill="#231F20"/>
<path d="M35.0926 4.58231C35.26 4.74193 35.4975 4.82369 35.805 4.82369C36.0269 4.82369 36.2177 4.76918 36.3812 4.65628C36.5409 4.54338 36.6382 4.42658 36.6771 4.302H37.6465C37.4908 4.78475 37.2533 5.12736 36.9341 5.3337C36.6148 5.54004 36.2255 5.64515 35.77 5.64515C35.4546 5.64515 35.1704 5.59454 34.9174 5.49332C34.6643 5.39209 34.4502 5.24805 34.275 5.06117C34.0998 4.8743 33.9635 4.65239 33.8662 4.39154C33.7689 4.13459 33.7222 3.84649 33.7222 3.53893C33.7222 3.23136 33.7728 2.95884 33.8701 2.70189C33.9674 2.44493 34.1076 2.21913 34.2906 2.03225C34.4736 1.84149 34.6877 1.69355 34.9407 1.58454C35.1899 1.47553 35.4702 1.42102 35.7739 1.42102C36.1165 1.42102 36.4124 1.4872 36.6654 1.61957C36.9185 1.75194 37.1287 1.92714 37.2922 2.15294C37.4558 2.37486 37.5726 2.62792 37.6465 2.91212C37.7205 3.19632 37.7439 3.4961 37.7244 3.80367H34.8278C34.8434 4.16184 34.933 4.41879 35.1004 4.57841L35.0926 4.58231ZM36.3384 2.47219C36.206 2.32814 36.0075 2.25417 35.735 2.25417C35.5598 2.25417 35.4118 2.28531 35.295 2.34371C35.1782 2.40211 35.0848 2.47608 35.0147 2.56562C34.9446 2.65517 34.894 2.74861 34.8668 2.84594C34.8395 2.94327 34.8201 3.03281 34.8162 3.11067H36.6109C36.5603 2.83036 36.4669 2.62013 36.3345 2.47219H36.3384Z" fill="#231F20"/>
</g>
<defs>
<clipPath id="clip0_9_523">
<rect width="37.6668" height="62.9999" fill="white" transform="translate(0.166626)"/>
</clipPath>
</defs>
</svg>
