<svg width="116" height="33" viewBox="0 0 116 33" fill="none" xmlns="http://www.w3.org/2000/svg">
<g clip-path="url(#clip0_6413_14009)">
<mask id="mask0_6413_14009" style="mask-type:luminance" maskUnits="userSpaceOnUse" x="-31" y="-23" width="359" height="476">
<path d="M-30.832 452.609H327.25V-22.3626H-30.832V452.609Z" fill="white"/>
</mask>
<g mask="url(#mask0_6413_14009)">
<path d="M29.476 16.5344C29.4866 13.6372 28.5065 11.3937 28.465 11.3013C27.7213 9.45662 26.6675 7.99693 25.5687 6.86347C23.5507 4.78067 21.2782 3.90869 21.2407 3.8949C21.2407 3.8937 21.2401 3.8913 21.2401 3.8913C19.4409 3.12606 17.6886 2.85799 16.1298 2.8526C13.2429 2.8424 11.0201 3.8901 11.0201 3.8901C9.21979 4.65293 7.79623 5.73361 6.69039 6.85927C4.64195 8.94447 3.79355 11.2965 3.79355 11.2965C3.04696 13.1407 2.78659 14.9314 2.78132 16.5296C2.77138 19.488 3.79472 21.7669 3.79472 21.7669C4.53897 23.6116 5.59508 25.0671 6.69448 26.2006C8.7283 28.3002 11.0242 29.1698 11.0242 29.1698C12.8223 29.935 14.5664 30.2055 16.1246 30.2109C19.0121 30.2211 21.2349 29.1728 21.2349 29.1728C23.034 28.4099 24.4617 27.3316 25.5681 26.2054C27.5797 24.1574 28.4334 21.8539 28.4638 21.7711C29.2098 19.927 29.4708 18.1321 29.476 16.5344Z" fill="white"/>
</g>
<path d="M6.38791 6.53855C4.27101 8.69332 3.39453 11.124 3.39453 11.124C16.4721 9.02256 19.981 12.5986 19.981 12.5986C18.9565 10.947 17.5482 9.3404 16.1375 7.94607C13.4916 5.32952 10.8616 3.47103 10.8616 3.47103C9.00098 4.25905 7.53062 5.37571 6.38791 6.53855Z" fill="url(#paint0_linear_6413_14009)"/>
<path d="M16.0826 2.39912C13.1208 2.39912 10.8477 3.47083 10.8477 3.47083C21.5439 11.4632 21.5597 16.5361 21.5597 16.5361C21.974 14.6249 22.0869 12.4683 22.0512 10.461C21.9845 6.69186 21.4064 3.47201 21.4064 3.47201C19.5481 2.68159 17.7378 2.40512 16.127 2.39912H16.0826Z" fill="url(#paint1_linear_6413_14009)"/>
<path d="M19.9688 20.4756C21.5801 19.4249 23.1488 17.9814 24.508 16.5361C27.0619 13.8236 28.874 11.1273 28.874 11.1273C28.1052 9.22138 27.0163 7.71373 25.8806 6.54249C23.7795 4.37273 21.4075 3.47493 21.4075 3.47493C23.4583 16.8785 19.9688 20.4756 19.9688 20.4756Z" fill="url(#paint2_linear_6413_14009)"/>
<path d="M16.125 22.1012C17.9903 22.5258 20.0949 22.6416 22.0527 22.605C25.7294 22.5366 28.8714 21.9447 28.8714 21.9447C29.6426 20.0394 29.9129 18.1833 29.9188 16.5329C29.9281 13.4756 28.8714 11.1211 28.8714 11.1211C21.0767 22.0838 16.1279 22.0958 16.1279 22.0958" fill="url(#paint3_linear_6413_14009)"/>
<path d="M12.2969 20.4701C13.3226 22.1211 14.7303 23.7283 16.1398 25.1227C18.788 27.7386 21.4134 29.5947 21.4134 29.5947C23.2734 28.8067 24.7484 27.6918 25.8911 26.5296C28.0075 24.3742 28.8833 21.9436 28.8833 21.9436C15.8063 24.045 12.2969 20.4701 12.2969 20.4701Z" fill="url(#paint4_linear_6413_14009)"/>
<path d="M10.1976 22.6046C10.2643 26.3732 10.8511 29.5901 10.8511 29.5901C12.222 30.1736 13.5613 30.4782 14.8158 30.6006H17.447C19.7581 30.3679 21.4011 29.5931 21.4011 29.5931C10.7037 21.5989 10.6891 16.5254 10.6891 16.5254C10.2754 18.436 10.1619 20.5932 10.1976 22.601" fill="url(#paint5_linear_6413_14009)"/>
<path d="M7.75899 16.5291C5.20619 19.2422 3.39062 21.9421 3.39062 21.9421C4.16003 23.848 5.25125 25.3521 6.38576 26.5233C8.48803 28.6925 10.86 29.5908 10.86 29.5908C8.80984 16.1867 12.2976 12.5896 12.2976 12.5896C10.6863 13.6409 9.11819 15.0832 7.75899 16.5291Z" fill="url(#paint6_linear_6413_14009)"/>
<path d="M10.2093 10.4594C6.53257 10.5278 3.38998 11.1252 3.38998 11.1252C2.61882 13.0304 2.34967 14.8805 2.34382 16.5315C2.33387 19.5889 3.39115 21.9434 3.39115 21.9434C11.1888 10.9794 16.137 10.9638 16.137 10.9638C14.4829 10.5872 12.6393 10.4534 10.8758 10.4534C10.6523 10.4534 10.4299 10.4558 10.2093 10.4594Z" fill="url(#paint7_linear_6413_14009)"/>
<mask id="mask1_6413_14009" style="mask-type:luminance" maskUnits="userSpaceOnUse" x="-31" y="-23" width="359" height="476">
<path d="M-30.832 452.609H327.25V-22.3626H-30.832V452.609Z" fill="white"/>
</mask>
<g mask="url(#mask1_6413_14009)">
<path d="M47.8323 14.7695C48.0798 14.7695 48.2419 14.5788 48.2419 14.3743C48.2419 14.273 48.2185 14.1704 48.1676 14.0817L46.6036 10.9002C47.28 10.6003 47.7136 9.96584 47.8066 9.12084C47.8136 9.06627 47.8206 9.01169 47.8318 8.85637L47.8323 8.36161C47.8323 8.47075 47.916 6.04312 45.6563 6.04312H43.5435C43.3212 6.04312 43.1211 6.23383 43.1211 6.48811V14.3239C43.1211 14.5788 43.3072 14.7695 43.5435 14.7695C43.7799 14.7695 43.9783 14.5788 43.9783 14.3239V11.1005H45.4697C45.5575 11.1005 45.6441 11.1005 45.7318 11.0879L47.4345 14.5153C47.4965 14.6292 47.6457 14.7695 47.8323 14.7695ZM45.6563 6.9217C46.5141 6.9217 46.9992 7.46983 46.9992 8.3658L46.9997 8.76461C46.9997 9.65219 46.5082 10.2105 45.6505 10.2105H43.9783V6.9217H45.6563Z" fill="#545456"/>
<path d="M63.8253 14.3239V8.08094L67.7034 14.553C67.8029 14.706 67.9521 14.7695 68.0638 14.7695C68.2628 14.7695 68.4985 14.5908 68.512 14.3743V14.2976V6.48811C68.512 6.23383 68.3002 6.04312 68.0638 6.04312C67.828 6.04312 67.6414 6.23383 67.6414 6.48811V12.7191L63.7756 6.25902C63.7142 6.15766 63.6018 6.04312 63.4275 6.04312C63.1788 6.04312 62.9688 6.24642 62.9688 6.5013V14.3239C62.9688 14.5782 63.1659 14.7695 63.4023 14.7695C63.6387 14.7695 63.8253 14.5782 63.8253 14.3239Z" fill="#545456"/>
<path d="M75.495 6.04312C75.2593 6.04312 75.0726 6.23383 75.0726 6.48811V9.95384H71.3806V6.48811C71.3806 6.23383 71.1951 6.04312 70.9582 6.04312C70.7224 6.04312 70.5234 6.23383 70.5234 6.48811V14.3239C70.5234 14.5788 70.7224 14.7695 70.9582 14.7695C71.1951 14.7695 71.3806 14.5788 71.3806 14.3239V10.833H75.0726V14.3239C75.0726 14.5788 75.2593 14.7695 75.495 14.7695C75.7314 14.7695 75.9427 14.5788 75.9427 14.3239V6.48811C75.9427 6.23383 75.7314 6.04312 75.495 6.04312Z" fill="#545456"/>
<path d="M81.0025 5.91557C78.9265 5.91557 77.957 7.95399 77.957 10.3996C77.957 12.8464 78.9265 14.8975 81.0025 14.8975C83.0778 14.8975 84.0479 12.8464 84.0479 10.3996C84.0479 7.95399 83.0778 5.91557 81.0025 5.91557ZM81.0025 13.9799C79.5982 13.9799 78.902 12.3625 78.902 10.3996C78.902 8.43796 79.5982 6.83253 81.0025 6.83253C82.4061 6.83253 83.103 8.43796 83.103 10.3996C83.103 12.3625 82.4061 13.9799 81.0025 13.9799Z" fill="#545456"/>
<path d="M91.9578 6.4883C91.9578 6.23402 91.7717 6.04331 91.5354 6.04331C91.2996 6.04331 91.1006 6.23402 91.1006 6.4883V10.9604C91.1006 12.5118 90.5062 13.9859 89.0212 13.9925H89.0106C87.5198 13.9913 86.9236 12.5142 86.9236 10.9604V6.4883C86.9236 6.23402 86.7252 6.04331 86.4889 6.04331C86.2525 6.04331 86.0664 6.23402 86.0664 6.4883V11.0875C86.0664 12.8896 86.7943 14.8813 88.9867 14.8963V14.8975H89.02C91.2264 14.8921 91.9578 12.8944 91.9578 11.0875V6.4883Z" fill="#545456"/>
<path d="M38.3525 14.8921C38.3671 14.8915 38.3812 14.8897 38.3958 14.8891C38.4028 14.8879 38.4104 14.8879 38.418 14.8867C40.4284 14.7361 41.1042 12.8243 41.1042 11.0881V10.5735C41.1042 10.5609 41.1042 10.5483 41.1031 10.5358L41.1042 10.5274C41.1042 10.1705 40.9445 9.95403 40.6086 9.95403H38.3841C38.146 9.95403 37.9482 10.1453 37.9482 10.4002C37.9482 10.6551 38.146 10.8332 38.3841 10.8332H40.2471V10.9604C40.2471 12.459 39.693 13.8851 38.3174 13.9865C38.2706 13.9895 38.2413 13.9919 38.208 13.9919C36.8031 13.9919 35.9846 12.3625 35.9846 10.4002C35.9846 8.43796 36.7926 6.83253 38.1963 6.83253C39.3156 6.83253 39.5397 7.49521 39.9492 7.49521C40.1856 7.49521 40.384 7.30391 40.384 7.04963C40.384 6.93448 40.3465 6.80734 40.2599 6.71859C39.7012 6.14526 38.9294 5.91557 38.1963 5.91557C36.1203 5.91557 35.0391 7.95399 35.0391 10.4002C35.0391 12.8267 36.1162 14.8627 38.1594 14.8963V14.8975C38.1688 14.8975 38.177 14.8969 38.1857 14.8969C38.1933 14.8969 38.201 14.8975 38.2097 14.8975C38.2583 14.8975 38.3057 14.8957 38.3525 14.8921Z" fill="#545456"/>
<path d="M96.0422 13.9925C94.7614 13.9925 94.5882 13.1379 94.1535 13.1379C94.0049 13.1379 93.7305 13.2531 93.7305 13.5715C93.7305 13.6992 93.7802 13.8396 93.8299 13.9037C94.377 14.6042 95.1967 14.8975 96.0422 14.8975C97.3224 14.8975 98.516 13.7886 98.516 12.438C98.516 9.16421 94.6625 10.2083 94.6625 8.10632C94.6625 7.3165 95.2722 6.83253 96.0791 6.83253C97.1609 6.83253 97.4342 7.49521 97.8443 7.49521C98.0678 7.49521 98.2674 7.30391 98.2674 7.04903C98.2674 6.93448 98.2299 6.80674 98.1427 6.71799C97.6091 6.15786 96.8128 5.91557 96.0791 5.91557C94.9229 5.91557 93.7305 6.70539 93.7305 8.10632C93.7305 11.0623 97.5834 9.90306 97.5834 12.438C97.5834 13.2914 96.8631 13.9925 96.0422 13.9925Z" fill="#545456"/>
<path d="M54.1302 6.9217C54.3543 6.9217 54.5533 6.74298 54.5533 6.48811C54.5533 6.23323 54.3543 6.04252 54.1302 6.04252H50.567C50.3441 6.04252 50.1445 6.23323 50.1445 6.48811V10.1829V10.6285V12.5266V14.3239C50.1445 14.5782 50.3441 14.7695 50.567 14.7695H54.1302C54.3543 14.7695 54.5533 14.5782 54.5533 14.3239C54.5533 14.0685 54.3543 13.8904 54.1302 13.8904H51.0023V12.3623V11.0747V10.6159H53.6709C53.8945 10.6159 54.0805 10.4372 54.0805 10.1829C54.0805 9.92805 53.8945 9.73675 53.6709 9.73675H51.0023V6.9217H54.1302Z" fill="#545456"/>
<path d="M60.9121 14.3239C60.9121 14.0685 60.7137 13.891 60.4885 13.891H57.3611V12.3623V11.0753V10.6165H60.0291C60.2538 10.6165 60.4387 10.4378 60.4387 10.1829C60.4387 9.92865 60.2538 9.73735 60.0291 9.73735H57.3611V6.9217H60.4885C60.7137 6.9217 60.9121 6.74358 60.9121 6.48811C60.9121 6.23383 60.7137 6.04312 60.4885 6.04312H56.9252C56.7017 6.04312 56.5039 6.23383 56.5039 6.48811V10.1829V10.6285V12.5272V14.3239C56.5039 14.5782 56.7017 14.7695 56.9252 14.7695H60.4885C60.7137 14.7695 60.9121 14.5782 60.9121 14.3239Z" fill="#545456"/>
<path d="M104.513 6.9217C104.737 6.9217 104.936 6.74298 104.936 6.48811C104.936 6.23323 104.737 6.04252 104.513 6.04252H100.95C100.726 6.04252 100.527 6.23323 100.527 6.48811V10.1829V10.6285V12.5266V14.3239C100.527 14.5782 100.726 14.7695 100.95 14.7695H104.513C104.737 14.7695 104.936 14.5782 104.936 14.3239C104.936 14.0685 104.737 13.8904 104.513 13.8904H101.385V12.3623V11.0747V10.6159H104.054C104.277 10.6159 104.463 10.4372 104.463 10.1829C104.463 9.92805 104.277 9.73675 104.054 9.73675H101.385V6.9217H104.513Z" fill="#545456"/>
<path d="M71.1364 27.0195C71.3845 27.0195 71.546 26.8276 71.546 26.6243C71.546 26.5224 71.5226 26.4204 71.4723 26.3311L69.9083 23.1496C70.5841 22.8503 71.0171 22.2152 71.1101 21.3708C71.1183 21.3163 71.1253 21.2617 71.1359 21.1058L71.1364 20.6104C71.1364 20.7208 71.2201 18.2925 68.9604 18.2925H66.8482C66.6247 18.2925 66.4258 18.4832 66.4258 18.7387V26.5739C66.4258 26.8276 66.6118 27.0195 66.8482 27.0195C67.084 27.0195 67.283 26.8276 67.283 26.5739V23.3505H68.7738C68.8616 23.3505 68.9487 23.3505 69.0353 23.3379L70.7386 26.7647C70.8006 26.8792 70.9492 27.0195 71.1364 27.0195ZM68.9604 19.1711C69.8182 19.1711 70.3038 19.7198 70.3038 20.6146V21.0146C70.3038 21.9016 69.8124 22.4605 68.9546 22.4605H67.283V19.1711H68.9604Z" fill="#545456"/>
<path d="M38.3525 27.1415C38.3665 27.1409 38.3812 27.1397 38.3946 27.1385C38.4028 27.1379 38.4104 27.1379 38.418 27.1367C40.4279 26.9855 41.1048 25.0743 41.1048 23.3381V22.8235C41.1048 22.8103 41.1042 22.7983 41.1031 22.7858L41.1048 22.7774C41.1048 22.4205 40.9433 22.204 40.6081 22.204H38.3835C38.1471 22.204 37.9482 22.3953 37.9482 22.6502C37.9482 22.9051 38.1471 23.0832 38.3835 23.0832H40.2471V23.2104C40.2471 24.709 39.693 26.1351 38.3174 26.2371C38.2706 26.2395 38.2413 26.2419 38.208 26.2419C36.8031 26.2419 35.9834 24.6119 35.9834 22.6502C35.9834 20.6886 36.7926 19.0831 38.1963 19.0831C39.315 19.0831 39.5391 19.7452 39.9498 19.7452C40.1862 19.7452 40.384 19.5539 40.384 19.2996C40.384 19.1851 40.3465 19.0573 40.2599 18.9686C39.7012 18.3953 38.9294 18.1662 38.1963 18.1662C36.1203 18.1662 35.0391 20.204 35.0391 22.6502C35.0391 25.0767 36.1162 27.1127 38.1594 27.1463V27.1475C38.1682 27.1475 38.177 27.1463 38.1846 27.1463C38.1933 27.1463 38.2015 27.1475 38.2097 27.1475C38.2583 27.1475 38.3057 27.1451 38.3525 27.1415Z" fill="#545456"/>
<path d="M45.5858 18.599C45.5237 18.4203 45.35 18.2931 45.1633 18.2931C44.9767 18.2931 44.8152 18.4203 44.7532 18.599L42.081 26.421C42.0564 26.4846 42.043 26.5614 42.043 26.6375C42.043 26.8414 42.1928 27.0195 42.4666 27.0195C42.6515 27.0195 42.827 26.8918 42.889 26.7137L43.8082 24.0641H46.5676L47.5125 26.7137C47.5745 26.8918 47.7489 27.0195 47.9349 27.0195C48.1713 27.0195 48.3708 26.8414 48.3708 26.5859C48.3708 26.5224 48.3708 26.4462 48.3457 26.3694L45.5858 18.599ZM44.1078 23.185L45.1633 20.0509L46.2569 23.185H44.1078Z" fill="#545456"/>
<path d="M50.46 20.3165C50.46 19.5261 51.0685 19.0421 51.8771 19.0421C52.9578 19.0421 53.2322 19.7048 53.6412 19.7048C53.8653 19.7048 54.0648 19.5135 54.0648 19.2586C54.0648 19.1435 54.0268 19.0169 53.9402 18.927C53.406 18.3674 52.6102 18.1246 51.8771 18.1246C50.7204 18.1246 49.5273 18.9144 49.5273 20.3165C49.5273 23.2713 53.3808 22.1126 53.3808 24.6476C53.3808 25.501 52.66 26.2021 51.8397 26.2021C50.56 26.2021 50.3851 25.3481 49.9498 25.3481C49.8006 25.3481 49.5273 25.4626 49.5273 25.7817C49.5273 25.9088 49.5771 26.0492 49.6274 26.1127C50.1745 26.8138 50.9942 27.1064 51.8397 27.1064C53.1199 27.1064 54.3129 25.9976 54.3129 24.6476C54.3129 21.3732 50.46 22.4179 50.46 20.3165Z" fill="#545456"/>
<path d="M76.0181 18.1662C73.9416 18.1662 72.9727 20.204 72.9727 22.6502C72.9727 25.0964 73.9416 27.1475 76.0181 27.1475C78.0935 27.1475 79.0618 25.0964 79.0618 22.6502C79.0618 20.204 78.0935 18.1662 76.0181 18.1662ZM76.0181 26.2299C74.6133 26.2299 73.917 24.6119 73.917 22.6502C73.917 20.6886 74.6133 19.0837 76.0181 19.0837C77.4224 19.0837 78.1186 20.6886 78.1186 22.6502C78.1186 24.6119 77.4224 26.2299 76.0181 26.2299Z" fill="#545456"/>
<path d="M85.7847 18.2935H82.889H80.0056C79.7692 18.2935 79.5586 18.4842 79.5586 18.7391C79.5586 18.994 79.7692 19.1721 80.0056 19.1721H82.4543V26.5869C82.4543 26.8418 82.6532 27.0205 82.889 27.0205C83.1254 27.0205 83.312 26.8418 83.312 26.5869V19.1721H85.7847C86.021 19.1721 86.22 18.994 86.22 18.7391C86.22 18.4842 86.021 18.2935 85.7847 18.2935Z" fill="#545456"/>
<path d="M89.6419 18.1662C87.5666 18.1662 86.5977 20.204 86.5977 22.6502C86.5977 25.0964 87.5666 27.1475 89.6419 27.1475C91.7185 27.1475 92.6874 25.0964 92.6874 22.6502C92.6874 20.204 91.7185 18.1662 89.6419 18.1662ZM89.6419 26.2299C88.2377 26.2299 87.5414 24.6119 87.5414 22.6502C87.5414 20.6886 88.2377 19.0837 89.6419 19.0837C91.0468 19.0837 91.7425 20.6886 91.7425 22.6502C91.7425 24.6119 91.0468 26.2299 89.6419 26.2299Z" fill="#545456"/>
<path d="M97.6873 19.0837C98.8066 19.0837 99.0301 19.7458 99.4403 19.7458C99.6766 19.7458 99.875 19.5545 99.875 19.2996C99.875 19.1851 99.8375 19.0579 99.7509 18.9686C99.1916 18.3953 98.421 18.1662 97.6873 18.1662C95.6119 18.1662 94.5312 20.204 94.5312 22.6502C94.5312 25.0964 95.6119 27.1475 97.6873 27.1475C98.4345 27.1475 99.2045 26.88 99.7509 26.3199C99.8375 26.2305 99.875 26.116 99.875 26.0008C99.875 25.7459 99.6766 25.5426 99.4403 25.5426C99.0301 25.5426 98.7569 26.2305 97.6627 26.2305C96.2585 26.2305 95.475 24.6125 95.475 22.6502C95.475 20.6886 96.283 19.0837 97.6873 19.0837Z" fill="#545456"/>
<path d="M104.189 18.1246C102.113 18.1246 101.145 20.163 101.145 22.6092C101.145 25.0554 102.113 27.1064 104.189 27.1064C106.265 27.1064 107.235 25.0554 107.235 22.6092C107.235 20.163 106.265 18.1246 104.189 18.1246ZM104.189 26.1889C102.785 26.1889 102.088 24.5709 102.088 22.6092C102.088 20.6475 102.785 19.0421 104.189 19.0421C105.594 19.0421 106.29 20.6475 106.29 22.6092C106.29 24.5709 105.594 26.1889 104.189 26.1889Z" fill="#545456"/>
<path d="M113.236 26.1179H110.108V24.7541C110.108 24.7523 110.109 18.6845 110.109 18.6845C110.109 18.4296 109.91 18.2515 109.673 18.2515C109.437 18.2515 109.251 18.4296 109.251 18.6845V18.7186L109.25 18.7156V22.4105V22.8567V24.7547V26.5509C109.25 26.8058 109.449 26.9971 109.673 26.9971H113.236C113.46 26.9971 113.659 26.8058 113.659 26.5509C113.659 26.296 113.46 26.1179 113.236 26.1179Z" fill="#545456"/>
<path d="M62.239 18.2935H60.1262C59.9015 18.2935 59.7031 18.4842 59.7031 18.7391V26.5749C59.7031 26.8286 59.8904 27.0205 60.1262 27.0205C60.3625 27.0205 60.5603 26.8286 60.5603 26.5749V23.3515H62.0523C62.1401 23.3515 62.2267 23.3515 62.3139 23.3383C63.597 23.3029 64.4138 22.4219 64.4085 21.0216V20.5376C64.4085 20.48 64.405 20.4243 64.3992 20.3709C64.3073 19.1163 63.4911 18.2935 62.239 18.2935ZM62.239 19.1721C63.0961 19.1721 63.5941 19.7124 63.5941 20.6036L63.5923 21.0264C63.5923 21.9182 63.0903 22.4609 62.2331 22.4609H60.5603V19.1721H62.239Z" fill="#545456"/>
</g>
</g>
<defs>
<linearGradient id="paint0_linear_6413_14009" x1="10.7574" y1="20.5313" x2="1.94817" y2="10.2886" gradientUnits="userSpaceOnUse">
<stop stop-color="white"/>
<stop offset="1" stop-color="#00ACA1"/>
</linearGradient>
<linearGradient id="paint1_linear_6413_14009" x1="9.56407" y1="15.4595" x2="10.783" y2="1.86621" gradientUnits="userSpaceOnUse">
<stop stop-color="white"/>
<stop offset="1" stop-color="#00ACA1"/>
</linearGradient>
<linearGradient id="paint2_linear_6413_14009" x1="12.229" y1="11.0222" x2="22.6384" y2="2.50041" gradientUnits="userSpaceOnUse">
<stop stop-color="white"/>
<stop offset="1" stop-color="#00ACA1"/>
</linearGradient>
<linearGradient id="paint3_linear_6413_14009" x1="17.1748" y1="9.80879" x2="30.4473" y2="10.9417" gradientUnits="userSpaceOnUse">
<stop stop-color="white"/>
<stop offset="1" stop-color="#00ACA1"/>
</linearGradient>
<linearGradient id="paint4_linear_6413_14009" x1="21.5213" y1="12.5359" x2="30.3301" y2="22.778" gradientUnits="userSpaceOnUse">
<stop stop-color="white"/>
<stop offset="1" stop-color="#00ACA1"/>
</linearGradient>
<linearGradient id="paint5_linear_6413_14009" x1="22.6844" y1="17.6052" x2="21.4655" y2="31.1979" gradientUnits="userSpaceOnUse">
<stop stop-color="white"/>
<stop offset="1" stop-color="#00ACA1"/>
</linearGradient>
<linearGradient id="paint6_linear_6413_14009" x1="20.038" y1="22.0432" x2="9.62807" y2="30.5653" gradientUnits="userSpaceOnUse">
<stop stop-color="white"/>
<stop offset="1" stop-color="#00ACA1"/>
</linearGradient>
<linearGradient id="paint7_linear_6413_14009" x1="15.0876" y1="23.2566" x2="1.81502" y2="22.1237" gradientUnits="userSpaceOnUse">
<stop stop-color="white"/>
<stop offset="1" stop-color="#00ACA1"/>
</linearGradient>
<clipPath id="clip0_6413_14009">
<rect width="116" height="33" fill="white"/>
</clipPath>
</defs>
</svg>
