<svg width="60" height="61" viewBox="0 0 60 61" fill="none" xmlns="http://www.w3.org/2000/svg">
<g clip-path="url(#clip0_10692_43523)">
<path d="M59.936 30.4681C59.936 47.0187 46.5187 60.436 29.9679 60.436C13.417 60.436 0 47.0187 0 30.4681C0 13.9173 13.417 0.5 29.9679 0.5C46.5187 0.5 59.936 13.9173 59.936 30.4681Z" fill="#1158A6"/>
<path d="M53.1009 23.0963H55.9863V37.8396H53.1009V23.0963ZM31.3202 33.9539H33.3018C32.5056 34.8285 31.3839 35.3706 29.9672 35.3706C27.2593 35.3706 25.0643 33.1753 25.0643 30.468C25.0643 27.7601 27.2594 25.565 29.9672 25.565C32.0798 25.565 33.8798 26.901 34.5693 28.7741H37.5686C36.7953 25.2875 33.6868 22.6797 29.9672 22.6797C25.6658 22.6797 22.179 26.1665 22.179 30.468C22.179 34.7692 25.6658 38.2563 29.9672 38.2563C31.9985 38.2563 33.6134 37.5466 34.8573 36.3777V37.8396H37.5687V31.2428H31.3201V33.9539H31.3202ZM45.5453 25.9817H42.6702V30.0042H45.5453C46.6564 30.0042 47.5567 29.104 47.5567 27.9931C47.5567 26.8823 46.6564 25.9817 45.5453 25.9817ZM44.3734 32.8899H42.6702V37.8396H39.7848V23.0963H45.5453C48.25 23.0963 50.4421 25.2887 50.4421 27.9932C50.4421 29.9718 49.2679 31.675 47.5787 32.4475L50.8848 37.8396H47.4082L44.3734 32.89V32.8899Z" fill="white"/>
</g>
<defs>
<clipPath id="clip0_10692_43523">
<rect width="60" height="60" fill="white" transform="translate(0 0.5)"/>
</clipPath>
</defs>
</svg>
