<svg width="100" height="40" viewBox="0 0 100 40" fill="none" xmlns="http://www.w3.org/2000/svg">
<g clip-path="url(#clip0_52_159)">
<mask id="mask0_52_159" style="mask-type:luminance" maskUnits="userSpaceOnUse" x="0" y="0" width="100" height="40">
<path d="M99.5 0H0.5V40H99.5V0Z" fill="white"/>
</mask>
<g mask="url(#mask0_52_159)">
<path d="M0.5 11.8337H3.35261V26.7726H11.2379V29.3993H0.5V11.8337ZM14.0441 11.8337C14.2756 11.8307 14.5054 11.873 14.7204 11.9582C14.9355 12.0435 15.1314 12.17 15.2973 12.3305C15.4632 12.4911 15.5954 12.6826 15.6869 12.894C15.7783 13.1054 15.8269 13.3327 15.8299 13.5627C15.8299 14.0335 15.6418 14.4851 15.3069 14.818C14.9719 15.1509 14.5177 15.3379 14.0441 15.3379C13.5705 15.3379 13.1163 15.1509 12.7814 14.818C12.4464 14.4851 12.2583 14.0335 12.2583 13.5627C12.2593 13.3321 12.3065 13.1039 12.3971 12.8915C12.4878 12.6791 12.6201 12.4869 12.7864 12.3259C12.9527 12.1649 13.1495 12.0385 13.3654 11.954C13.5814 11.8695 13.812 11.8286 14.0441 11.8337ZM12.6526 16.7442H15.3892V29.3993H12.6526V16.7442ZM16.9894 16.7442H19.7261V18.4963C20.5363 17.1592 21.9279 16.3984 23.76 16.3984C26.7286 16.3984 28.584 18.7038 28.584 22.3694V29.3993H25.8473V22.5999C25.8473 20.2253 24.8036 18.8882 22.9188 18.8882C20.8563 18.8882 19.7199 20.2945 19.7199 22.8305V29.3993H16.9834L16.9894 16.7442ZM30.0219 11.8337H32.7585V22.9457L37.8607 16.7442H41.293L35.843 23.0841L41.293 29.3993H37.8607L32.7585 23.2224V29.3993H30.0219V11.8337ZM42.3599 13.5243H45.143V16.7519H48.3899V19.0112H45.143V25.5339C45.143 26.3654 45.6532 26.8725 46.4417 26.8725H48.2755V29.4069H46.0707C43.6819 29.4069 42.3599 28.0007 42.3599 25.5125V13.5243ZM49.5959 16.7519H52.3325V18.3195C53.005 17.1207 54.1415 16.4061 55.533 16.4061C55.8542 16.3915 56.1756 16.4305 56.4838 16.5213V19.0573C56.149 18.9841 55.8061 18.9531 55.4635 18.9651C53.4457 18.9651 52.3325 20.6557 52.3325 23.5528V29.4069H49.5959V16.7519ZM62.8833 16.4061C65.8982 16.4061 69.1681 18.2273 69.1681 23.3683V23.7373H59.3582C59.5685 25.9949 60.8888 27.2399 63.092 27.2399C64.6691 27.2399 66.0142 26.3869 66.3157 25.2127H69.099C68.8206 27.7471 66.1766 29.7527 63.092 29.7527C59.1495 29.7527 56.6694 27.1937 56.6694 23.0687C56.6694 19.3954 59.0582 16.3984 62.8833 16.3984V16.4061ZM66.2461 21.4779C65.8519 19.9103 64.6226 18.9189 62.8833 18.9189C61.2135 18.9189 60.0323 19.9333 59.5685 21.4779H66.2461ZM76.5898 16.4061C79.605 16.4061 82.8746 18.2273 82.8746 23.3683V23.7373H73.0643C73.273 25.9949 74.5952 27.2399 76.7984 27.2399C78.3758 27.2399 79.7206 26.3869 80.0222 25.2127H82.8055C82.5272 27.7471 79.8827 29.7527 76.7984 29.7527C72.8557 29.7527 70.3741 27.1937 70.3741 23.0687C70.3741 19.3954 72.7634 16.3984 76.5898 16.3984V16.4061ZM79.9525 21.4779C79.5585 19.9103 78.3293 18.9189 76.5898 18.9189C74.9201 18.9189 73.7374 19.9333 73.273 21.4779H79.9525Z" fill="#191A19"/>
<path d="M83.5484 16.36H88.4419L84.963 13.0633L86.8878 11.096L90.2047 14.485V9.66669H93.0803V14.485L96.3965 11.1037L98.32 13.0633L94.843 16.3524H99.7346V19.0727H94.8151L98.3153 22.4539L96.3965 24.3752L91.6425 19.626L86.8878 24.3752L84.963 22.4617L88.4652 19.0804H83.5484V16.36ZM90.1967 22.9764H93.0723V29.4316H90.1967V22.9764Z" fill="#191A19"/>
</g>
</g>
<defs>
<clipPath id="clip0_52_159">
<rect width="99" height="40" fill="white" transform="translate(0.5)"/>
</clipPath>
</defs>
</svg>
