<svg width="148" height="26" viewBox="0 0 148 26" fill="none" xmlns="http://www.w3.org/2000/svg">
<path d="M0 25.5943V0.405721H4.59818V13.5241L3.3472 13.0845L14.065 0.405721H19.8466L9.80494 12.3069L10.0754 9.06112L20.1508 25.5943H14.7412L7.97919 14.5046L4.59818 18.528V25.5943H0Z" fill="#191A19"/>
<path d="M22.5754 25.5943V0H27.0045V10.8192L26.3959 10.1769C26.8242 9.07239 27.523 8.23841 28.4922 7.6749C29.4839 7.08886 30.6335 6.79584 31.9408 6.79584C33.2932 6.79584 34.4878 7.08886 35.5247 7.6749C36.5841 8.26095 37.4068 9.08366 37.9928 10.143C38.5789 11.1799 38.8719 12.3858 38.8719 13.7607V25.5943H34.4428V14.8088C34.4428 13.9974 34.285 13.2987 33.9694 12.7126C33.6539 12.1266 33.2143 11.6758 32.6508 11.3602C32.1099 11.0221 31.4675 10.8531 30.7236 10.8531C30.0024 10.8531 29.36 11.0221 28.7965 11.3602C28.233 11.6758 27.7934 12.1266 27.4779 12.7126C27.1623 13.2987 27.0045 13.9974 27.0045 14.8088V25.5943H22.5754Z" fill="#191A19"/>
<path d="M48.1958 26C46.911 26 45.7953 25.7859 44.8486 25.3576C43.9019 24.9293 43.1694 24.3208 42.651 23.5319C42.1325 22.7204 41.8733 21.785 41.8733 20.7256C41.8733 19.7113 42.0987 18.8097 42.5495 18.0208C43.0003 17.2094 43.6991 16.5332 44.6458 15.9922C45.5924 15.4512 46.7871 15.0681 48.2296 14.8427L54.2478 13.8622V17.2432L49.0749 18.1222C48.1958 18.28 47.5422 18.5618 47.1139 18.9675C46.6856 19.3732 46.4715 19.9029 46.4715 20.5566C46.4715 21.1877 46.7082 21.6948 47.1815 22.078C47.6774 22.4387 48.286 22.619 49.0073 22.619C49.9314 22.619 50.7429 22.4274 51.4416 22.0442C52.1629 21.6385 52.7151 21.0863 53.0983 20.3875C53.504 19.6888 53.7069 18.9224 53.7069 18.0884V13.355C53.7069 12.5661 53.3913 11.9124 52.7602 11.394C52.1516 10.8531 51.3402 10.5826 50.3259 10.5826C49.3792 10.5826 48.5339 10.8418 47.7901 11.3602C47.0688 11.8561 46.5391 12.521 46.201 13.355L42.5833 11.5969C42.944 10.6277 43.5075 9.79367 44.2739 9.09493C45.0628 8.37365 45.9869 7.81014 47.0463 7.40442C48.1057 6.9987 49.2552 6.79584 50.4949 6.79584C52.0051 6.79584 53.335 7.07759 54.4845 7.64109C55.6341 8.18206 56.5244 8.94842 57.1555 9.94018C57.8092 10.9094 58.136 12.0477 58.136 13.355V25.5943H53.9436V22.4499L54.8902 22.3823C54.4169 23.1712 53.8534 23.8362 53.1997 24.3771C52.5461 24.8955 51.8022 25.3013 50.9683 25.5943C50.1343 25.8648 49.2101 26 48.1958 26Z" fill="#191A19"/>
<path d="M60.6406 25.5943V22.0104L71.3246 9.63589L72.0008 11.1573H61.1139V7.20156H75.9228V10.8192L65.4416 23.1938L64.7654 21.6723H75.9904V25.5943H60.6406Z" fill="#191A19"/>
<path d="M129.122 26C127.837 26 126.722 25.7859 125.775 25.3576C124.828 24.9293 124.096 24.3208 123.577 23.5319C123.059 22.7204 122.8 21.785 122.8 20.7256C122.8 19.7113 123.025 18.8097 123.476 18.0208C123.927 17.2094 124.626 16.5332 125.572 15.9922C126.519 15.4512 127.713 15.0681 129.156 14.8427L135.174 13.8622V17.2432L130.001 18.1222C129.122 18.28 128.469 18.5618 128.04 18.9675C127.612 19.3732 127.398 19.9029 127.398 20.5566C127.398 21.1877 127.635 21.6948 128.108 22.078C128.604 22.4387 129.212 22.619 129.934 22.619C130.858 22.619 131.669 22.4274 132.368 22.0442C133.089 21.6385 133.642 21.0863 134.025 20.3875C134.43 19.6888 134.633 18.9224 134.633 18.0884V13.355C134.633 12.5661 134.318 11.9124 133.687 11.394C133.078 10.8531 132.267 10.5826 131.252 10.5826C130.306 10.5826 129.46 10.8418 128.717 11.3602C127.995 11.8561 127.466 12.521 127.127 13.355L123.51 11.5969C123.87 10.6277 124.434 9.79367 125.2 9.09493C125.989 8.37365 126.913 7.81014 127.973 7.40442C129.032 6.9987 130.182 6.79584 131.421 6.79584C132.932 6.79584 134.261 7.07759 135.411 7.64109C136.56 8.18206 137.451 8.94842 138.082 9.94018C138.736 10.9094 139.062 12.0477 139.062 13.355V25.5943H134.87V22.4499L135.817 22.3823C135.343 23.1712 134.78 23.8362 134.126 24.3771C133.472 24.8955 132.729 25.3013 131.895 25.5943C131.061 25.8648 130.137 26 129.122 26Z" fill="#191A19"/>
<path d="M143.156 25.5943V7.20156H147.585V25.5943H143.156ZM143.156 5.13914V0.405721H147.585V5.13914H143.156Z" fill="#191A19"/>
<path d="M78.5074 7.20156V25.5943H82.9365V15.3498C82.9365 13.9523 83.3197 12.8704 84.0861 12.104C84.8525 11.3151 85.8668 10.9207 87.129 10.9207H88.7181V6.9987H87.6361C86.3514 6.9987 85.2469 7.26918 84.3228 7.81014C83.6313 8.22499 83.0791 8.88508 82.6661 9.79039V7.20156H78.5074Z" fill="#0D5942"/>
<path d="M112.862 20.8609V25.5943H117.325V20.8609H112.862Z" fill="#191A19"/>
<path fill-rule="evenodd" clip-rule="evenodd" d="M102.48 25.5943V23.6655C102.246 23.9227 101.998 24.1599 101.736 24.3771C101.082 24.8955 100.338 25.3013 99.5043 25.5943C98.6703 25.8648 97.7462 26 96.7319 26C95.4471 26 94.3314 25.7859 93.3847 25.3576C92.438 24.9293 91.7054 24.3208 91.187 23.5319C90.6686 22.7204 90.4094 21.785 90.4094 20.7256C90.4094 19.7113 90.6348 18.8097 91.0856 18.0208C91.5364 17.2094 92.2351 16.5332 93.1818 15.9922C94.1285 15.4512 95.3231 15.0681 96.7657 14.8427L102.243 13.9503V13.355C102.243 12.5661 101.927 11.9124 101.296 11.394C100.688 10.8531 99.8762 10.5826 98.8619 10.5826C97.9152 10.5826 97.07 10.8418 96.3261 11.3602C95.6049 11.8561 95.0752 12.521 94.7371 13.355L91.1194 11.5969C91.48 10.6277 92.0435 9.79367 92.8099 9.09493C93.5988 8.37365 94.5229 7.81014 95.5823 7.40442C96.6417 6.9987 97.7913 6.79584 99.031 6.79584C100.541 6.79584 101.871 7.07759 103.021 7.64109C104.17 8.18205 105.06 8.94842 105.692 9.94018C106.345 10.9094 106.672 12.0477 106.672 13.355V25.5943H102.48ZM97.6109 18.1222L102.243 17.3351V18.0884C102.243 18.9224 102.04 19.6888 101.634 20.3875C101.251 21.0863 100.699 21.6385 99.9776 22.0442C99.2789 22.4274 98.4675 22.619 97.5433 22.619C96.822 22.619 96.2134 22.4387 95.7176 22.078C95.2442 21.6948 95.0076 21.1877 95.0076 20.5566C95.0076 19.9029 95.2217 19.3732 95.6499 18.9675C96.0782 18.5618 96.7319 18.28 97.6109 18.1222Z" fill="#0D5942"/>
</svg>
