<?xml version="1.0" encoding="UTF-8"?>
<svg version="1.1" xmlns="http://www.w3.org/2000/svg" width="185" height="75">
<path d="M0 0 C1.32 0 2.64 0 4 0 C5.39440418 1.61591848 6.7197595 3.29221201 8 5 C9.73167239 6.52482637 11.5050535 8.00330271 13.3125 9.4375 C17.612991 12.88481048 21.83516634 16.39047749 26 20 C25.34 19.34 24.68 18.68 24 18 C21.76086765 14.64130147 21.34932092 12.86939652 21.53515625 8.9296875 C22.32393317 5.65526902 24.46152629 4.05495491 27 2 C27.66 1.34 28.32 0.68 29 0 C33.03883847 0.21902595 35.33163626 2.80099359 38.1875 5.4375 C39.06792969 6.24058594 39.94835938 7.04367188 40.85546875 7.87109375 C43.57532447 10.57113267 43.94276205 11.40472535 44.3125 15.25 C43.85072917 20.7912499 41.06270572 24.34356485 37 28 C34.53199953 26.84826645 32.95216435 25.95216435 31 24 C42.90653177 35.18492379 42.90653177 35.18492379 44.125 42.0625 C43.97189601 46.88527572 43.18787171 49.69970043 41 54 C39.265625 55.05859375 39.265625 55.05859375 37 55 C34.78176856 53.27775172 32.906375 51.60087856 30.9375 49.625 C29.77846754 48.50659511 28.61697262 47.39073696 27.453125 46.27734375 C26.87369141 45.72030762 26.29425781 45.16327148 25.69726562 44.58935547 C22.4587351 41.55672691 18.97972593 38.82406864 15.5234375 36.046875 C11.92771407 33.13022009 8.45613399 30.0798214 5 27 C5.70125 27.639375 6.4025 28.27875 7.125 28.9375 C11.54778711 33.42365082 16.262102 38.65638957 16.6875 45.1875 C15.9054802 49.52415528 14.49634853 52.33442499 11 55 C8.18467601 55.70787962 5.56754802 55.57575402 2.6875 55.375 C1.94693359 55.34792969 1.20636719 55.32085937 0.44335938 55.29296875 C-1.37235998 55.22268284 -3.18656801 55.11507089 -5 55 C-5.11651725 50.62522526 -5.18736 46.25085173 -5.25 41.875 C-5.28351562 40.6375 -5.31703125 39.4 -5.3515625 38.125 C-5.47325212 26.80786547 -5.47325212 26.80786547 -1 22 C-1.66 21.38125 -2.32 20.7625 -3 20.125 C-5.79456825 15.75848711 -5.83252938 12.05983878 -5 7 C-3.76869509 4.25026976 -2.14210776 2.14210776 0 0 Z " fill="#CF1F26" transform="translate(13,10)"/>
<path d="M0 0 C6.6 0 13.2 0 20 0 C22.42005138 2.42005138 22.26329238 3.04311221 22.31884766 6.35791016 C22.33871735 7.25869293 22.35858704 8.15947571 22.37905884 9.08755493 C22.39061005 10.06155243 22.40216125 11.03554993 22.4140625 12.0390625 C22.43342865 13.03505463 22.4527948 14.03104675 22.4727478 15.05722046 C22.53264965 18.2463925 22.57897138 21.43560043 22.625 24.625 C22.66317001 26.78387013 22.70222116 28.94272488 22.7421875 31.1015625 C22.83835991 36.40091707 22.92235166 41.70034294 23 47 C19.37 46.67 15.74 46.34 12 46 C12 32.47 12 18.94 12 5 C11.34 5 10.68 5 10 5 C10 18.53 10 32.06 10 46 C6.7 46 3.4 46 0 46 C0 30.82 0 15.64 0 0 Z " fill="#CE2026" transform="translate(65,10)"/>
<path d="M0 0 C6.6 0 13.2 0 20 0 C22 2 22 2 22.24050903 3.94888306 C22.2338472 5.14135147 22.2338472 5.14135147 22.22705078 6.35791016 C22.22689972 7.25869293 22.22674866 8.15947571 22.22659302 9.08755493 C22.21627045 10.06155243 22.20594788 11.03554993 22.1953125 12.0390625 C22.1924826 13.03505463 22.18965271 14.03104675 22.18673706 15.05722046 C22.1755184 18.24660118 22.15041081 21.43570378 22.125 24.625 C22.11497238 26.78385012 22.10584615 28.94270463 22.09765625 31.1015625 C22.07557356 36.40114926 22.04103225 41.70052744 22 47 C18.37 46.67 14.74 46.34 11 46 C11 32.8 11 19.6 11 6 C10.34 5.67 9.68 5.34 9 5 C9 18.53 9 32.06 9 46 C6.03 46 3.06 46 0 46 C0 30.82 0 15.64 0 0 Z " fill="#CE2026" transform="translate(137,10)"/>
<path d="M0 0 C0.83273438 0.00322266 1.66546875 0.00644531 2.5234375 0.00976562 C3.35617188 -0.00634766 4.18890625 -0.02246094 5.046875 -0.0390625 C6.24183594 -0.0400293 6.24183594 -0.0400293 7.4609375 -0.04101562 C8.19183594 -0.04399658 8.92273438 -0.04697754 9.67578125 -0.05004883 C11.5234375 0.32226562 11.5234375 0.32226562 13.5234375 3.32226562 C13.73198458 6.33275863 13.82744737 9.24848107 13.82421875 12.25976562 C13.82850388 13.13624756 13.832789 14.01272949 13.83720398 14.91577148 C13.84294546 16.76838314 13.84344888 18.62101734 13.83911133 20.47363281 C13.8359494 23.31158764 13.8594191 26.14850206 13.88476562 28.98632812 C13.8870384 30.78580597 13.88774222 32.58528663 13.88671875 34.38476562 C13.8959285 35.23482178 13.90513824 36.08487793 13.91462708 36.96069336 C13.86814519 42.86287778 13.86814519 42.86287778 12.2306366 45.04516602 C9.34412431 47.20447111 5.98171903 46.75264736 2.5234375 46.69726562 C1.79898438 46.70886719 1.07453125 46.72046875 0.328125 46.73242188 C-4.96474035 46.70312557 -4.96474035 46.70312557 -7.1837616 45.05189514 C-8.76201748 42.94035736 -8.8511771 41.8650614 -8.84887695 39.24975586 C-8.85510574 38.43558701 -8.86133453 37.62141815 -8.86775208 36.78257751 C-8.85854233 35.90751053 -8.84933258 35.03244354 -8.83984375 34.13085938 C-8.84034225 33.22980972 -8.84084076 32.32876007 -8.84135437 31.40040588 C-8.83901448 29.49648838 -8.82929095 27.59256774 -8.81274414 25.6887207 C-8.78912472 22.76746107 -8.79218706 19.84711225 -8.79882812 16.92578125 C-8.79325232 15.07746849 -8.78614306 13.22915959 -8.77734375 11.38085938 C-8.77825516 10.50376816 -8.77916656 9.62667694 -8.78010559 8.7230072 C-8.68923578 0.99148877 -7.18304048 0.06392674 0 0 Z M1.5234375 3.32226562 C1.5234375 16.19226563 1.5234375 29.06226563 1.5234375 42.32226562 C2.1834375 42.32226562 2.8434375 42.32226562 3.5234375 42.32226562 C3.5234375 29.45226562 3.5234375 16.58226562 3.5234375 3.32226562 C2.8634375 3.32226562 2.2034375 3.32226562 1.5234375 3.32226562 Z " fill="#CE2026" transform="translate(97.4765625,9.677734375)"/>
<path d="M0 0 C2.90058372 -0.30344568 5.54074295 -0.41805667 8.4375 -0.375 C9.21416016 -0.38660156 9.99082031 -0.39820313 10.79101562 -0.41015625 C16.48933411 -0.38070758 16.48933411 -0.38070758 18.72207642 1.28382874 C20.97408376 4.30813343 20.42515004 8.05438703 20.3984375 11.68359375 C20.40130768 12.53550797 20.40417786 13.38742218 20.40713501 14.26515198 C20.40917602 16.06650456 20.40364358 17.86787929 20.39111328 19.66918945 C20.37507948 22.42384575 20.39095006 25.17703043 20.41015625 27.93164062 C20.40817344 29.6822949 20.40432897 31.43294826 20.3984375 33.18359375 C20.40754654 34.41812538 20.40754654 34.41812538 20.4168396 35.67759705 C20.37464474 39.11701747 20.29449079 41.42668164 18.70556641 44.52001953 C15.86739514 46.98280141 12.56425494 46.5358024 9 46.4375 C8.27554688 46.44458984 7.55109375 46.45167969 6.8046875 46.45898438 C1.52805971 46.39570378 1.52805971 46.39570378 -0.7071991 44.72070312 C-3.01550687 41.64837204 -2.40333523 37.75946662 -2.36328125 34.0625 C-2.36377975 33.18601807 -2.36427826 32.30953613 -2.36479187 31.40649414 C-2.36245194 29.55385063 -2.35272819 27.70120391 -2.33618164 25.84863281 C-2.31258961 23.01077893 -2.31562115 20.17386452 -2.32226562 17.3359375 C-2.31668879 15.53645272 -2.30957888 13.73697191 -2.30078125 11.9375 C-2.30169266 11.08744385 -2.30260406 10.2373877 -2.30354309 9.36157227 C-2.23105159 3.34657738 -2.23105159 3.34657738 0 0 Z M8 3 C8 15.87 8 28.74 8 42 C8.66 42 9.32 42 10 42 C10 29.13 10 16.26 10 3 C9.34 3 8.68 3 8 3 Z " fill="#CE2026" transform="translate(115,10)"/>
<path d="M0 0 C0.87454834 0.00523682 1.74909668 0.01047363 2.65014648 0.01586914 C3.59438477 0.0190918 4.53862305 0.02231445 5.51147461 0.02563477 C6.50469727 0.03401367 7.49791992 0.04239258 8.52124023 0.05102539 C9.51833008 0.05553711 10.51541992 0.06004883 11.54272461 0.06469727 C14.01478872 0.07652532 16.48673541 0.0930069 18.95874023 0.11352539 C18.95874023 1.10352539 18.95874023 2.09352539 18.95874023 3.11352539 C19.61874023 3.11352539 20.27874023 3.11352539 20.95874023 3.11352539 C20.95874023 2.12352539 20.95874023 1.13352539 20.95874023 0.11352539 C25.24874023 0.11352539 29.53874023 0.11352539 33.95874023 0.11352539 C34.45374023 4.07352539 34.45374023 4.07352539 34.95874023 8.11352539 C9.95874023 8.11352539 9.95874023 8.11352539 7.33374023 7.55102539 C6.54999023 7.40665039 5.76624023 7.26227539 4.95874023 7.11352539 C4.62874023 7.44352539 4.29874023 7.77352539 3.95874023 8.11352539 C1.9591566 8.15433322 -0.04171231 8.15606895 -2.04125977 8.11352539 C-2.42189197 5.78743969 -2.75395921 3.45297275 -3.04125977 1.11352539 C-2.04125977 0.11352539 -2.04125977 0.11352539 0 0 Z M25.95874023 2.11352539 C26.95874023 4.11352539 26.95874023 4.11352539 26.95874023 4.11352539 Z M13.95874023 3.11352539 C14.95874023 5.11352539 14.95874023 5.11352539 14.95874023 5.11352539 Z " fill="#CE2026" transform="translate(67.041259765625,56.886474609375)"/>
<path d="M0 0 C0.99 0 1.98 0 3 0 C3 1.65 3 3.3 3 5 C3.99 5 4.98 5 6 5 C6.33 4.01 6.66 3.02 7 2 C6.34 2 5.68 2 5 2 C5 1.34 5 0.68 5 0 C9.29 0 13.58 0 18 0 C18.33 1.65 18.66 3.3 19 5 C19.66 5 20.32 5 21 5 C21 5.99 21 6.98 21 8 C14.07 8 7.14 8 0 8 C0 5.36 0 2.72 0 0 Z M15 2 C16 5 16 5 16 5 Z " fill="#CE2026" transform="translate(138,57)"/>
<path d="M0 0 C0.66 0 1.32 0 2 0 C2 1.65 2 3.3 2 5 C2.99 5 3.98 5 5 5 C5.33 3.35 5.66 1.7 6 0 C6.99 0 7.98 0 9 0 C9 1.65 9 3.3 9 5 C9.99 5 10.98 5 12 5 C12.33 3.35 12.66 1.7 13 0 C14.65 0 16.3 0 18 0 C19.08174162 3.36541838 18.92538169 4.29847322 18 8 C12.06 8 6.12 8 0 8 C0 5.36 0 2.72 0 0 Z " fill="#CE2026" transform="translate(116,57)"/>
<path d="M0 0 C1.51400391 0.01740234 1.51400391 0.01740234 3.05859375 0.03515625 C4.07050781 0.04417969 5.08242187 0.05320313 6.125 0.0625 C7.29869141 0.07990234 7.29869141 0.07990234 8.49609375 0.09765625 C8.49609375 2.73765625 8.49609375 5.37765625 8.49609375 8.09765625 C6.68367323 8.12452904 4.87114142 8.1439934 3.05859375 8.16015625 C2.04925781 8.17175781 1.03992188 8.18335937 0 8.1953125 C-2.50390625 8.09765625 -2.50390625 8.09765625 -3.50390625 7.09765625 C-3.62890625 4.09765625 -3.62890625 4.09765625 -3.50390625 1.09765625 C-2.50390625 0.09765625 -2.50390625 0.09765625 0 0 Z " fill="#CE2026" transform="translate(106.50390625,56.90234375)"/>
</svg>
