<?xml version="1.0" encoding="UTF-8"?>
<svg version="1.1" xmlns="http://www.w3.org/2000/svg" width="394" height="70">
<path d="M0 0 C-0.33 1.32 -0.66 2.64 -1 4 C-13.87 5.98 -26.74 7.96 -40 10 C-34.98591635 10.83568061 -32.46471784 10.99636513 -27.68359375 10.22265625 C-26.50732422 10.03896484 -25.33105469 9.85527344 -24.11914062 9.66601562 C-22.90419922 9.46685547 -21.68925781 9.26769531 -20.4375 9.0625 C-18.02004821 8.67514522 -15.60209438 8.29090758 -13.18359375 7.91015625 C-12.11681396 7.73621338 -11.05003418 7.56227051 -9.95092773 7.38305664 C-7.25668836 7.03332043 -4.71207606 6.92700546 -2 7 C-2.33 8.65 -2.66 10.3 -3 12 C-5.20655075 12.50780894 -7.41533605 13.00591365 -9.625 13.5 C-10.85476562 13.7784375 -12.08453125 14.056875 -13.3515625 14.34375 C-16.67152228 14.94091621 -19.63908451 15.12409534 -23 15 C-23 15.66 -23 16.32 -23 17 C-15.85650045 18.1710655 -10.04321983 17.59295252 -3 16 C-3.1875 18.8125 -3.1875 18.8125 -4 22 C-6.4375 23.8125 -6.4375 23.8125 -9 25 C-9.66 25.33 -10.32 25.66 -11 26 C-10.505 26.99 -10.505 26.99 -10 28 C-9.61904762 35.87301587 -9.61904762 35.87301587 -12 40 C-11.67 40.66 -11.34 41.32 -11 42 C-10.43683889 46.03598796 -10.92975391 47.86887396 -12.875 51.5 C-16.30189152 55.95992549 -21.10639598 58.40591476 -26 61 C-25.01 61.33 -24.02 61.66 -23 62 C-23.98044145 65.15920024 -24.98301678 65.99003159 -27.875 67.6875 C-32.95723833 69.63890797 -38.58656922 70.16620182 -44 70 C-44.99 69.34 -45.98 68.68 -47 68 C-43.535 67.01 -43.535 67.01 -40 66 C-41.09699219 66.02320312 -42.19398437 66.04640625 -43.32421875 66.0703125 C-44.778639 66.08907921 -46.23306664 66.10727844 -47.6875 66.125 C-48.40873047 66.14175781 -49.12996094 66.15851563 -49.87304688 66.17578125 C-54.02508025 66.21369936 -57.3424503 66.04931356 -61 64 C-61.66 63.01 -62.32 62.02 -63 61 C-60.36 61 -57.72 61 -55 61 C-57.7405062 59.17299587 -58.87189957 58.70163885 -61.9375 58.125 C-65.64364553 57.2513598 -67.73562066 56.20787073 -70 53 C-70 51.68 -70 50.36 -70 49 C-70.66 48.67 -71.32 48.34 -72 48 C-73.14032066 44.57903801 -73.10694955 41.78925595 -73.1875 38.1875 C-73.47369837 32.11842684 -73.47369837 32.11842684 -77 27.5 C-77.99 26.675 -78.98 25.85 -80 25 C-80.875 21.625 -80.875 21.625 -81 19 C-76.89041233 20.45044271 -73.56741255 22.51110752 -70 25 C-70 23.35 -70 21.7 -70 20 C-70.77085938 19.63648437 -71.54171875 19.27296875 -72.3359375 18.8984375 C-80.62950257 14.74099485 -80.62950257 14.74099485 -82.6875 10.625 C-82.790625 9.75875 -82.89375 8.8925 -83 8 C-78.3039076 8.80820431 -74.13617751 10.41676141 -69.71875 12.16015625 C-66.93603596 13.01975901 -64.89006349 13.31177055 -62 13 C-61.34 12.34 -60.68 11.68 -60 11 C-60.62044189 10.82871582 -61.24088379 10.65743164 -61.88012695 10.48095703 C-64.69249242 9.70119231 -67.50248664 8.91319683 -70.3125 8.125 C-71.28896484 7.85558594 -72.26542969 7.58617187 -73.27148438 7.30859375 C-74.67817383 6.91220703 -74.67817383 6.91220703 -76.11328125 6.5078125 C-77.40939331 6.14647217 -77.40939331 6.14647217 -78.73168945 5.77783203 C-81 5 -81 5 -84 3 C-84 2.34 -84 1.68 -84 1 C-76.28689674 1.33978428 -69.01353245 2.76420391 -61.54736328 4.62792969 C-51.23474799 7.10550312 -41.91451624 5.32783445 -31.625 3.5625 C-9.22275473 -0.24270407 -9.22275473 -0.24270407 0 0 Z M-59 15 C-59 15.66 -59 16.32 -59 17 C-57.741875 16.87625 -56.48375 16.7525 -55.1875 16.625 C-54.47980469 16.55539063 -53.77210937 16.48578125 -53.04296875 16.4140625 C-50.70011858 16.07334609 -50.70011858 16.07334609 -48 14 C-53.77786722 12.80215775 -53.77786722 12.80215775 -59 15 Z M-46 21 C-42.54997139 23.30001907 -40.089343 24.26257749 -36 25 C-33.1085881 24.29736669 -30.72879903 23.24471535 -28 22 C-34.82827919 17.44781387 -38.71606119 17.98930529 -46 21 Z M-66 21 C-66.99 22.485 -66.99 22.485 -68 24 C-67.01 23.67 -66.02 23.34 -65 23 C-65.33 22.34 -65.66 21.68 -66 21 Z M-61.5625 26.8125 C-62.7690625 27.8953125 -62.7690625 27.8953125 -64 29 C-62.68 30.32 -61.36 31.64 -60 33 C-58.53932801 32.54917531 -57.08151968 32.08906463 -55.625 31.625 C-54.81289063 31.36976562 -54.00078125 31.11453125 -53.1640625 30.8515625 C-50.83540815 30.10145717 -50.83540815 30.10145717 -49 28 C-55.2272962 25.03895796 -55.2272962 25.03895796 -61.5625 26.8125 Z M-25 30 C-22.63707344 32.52588702 -21.33537489 33.88820837 -18 35 C-16.68 33.68 -15.36 32.36 -14 31 C-15.2488427 29.4166747 -15.2488427 29.4166747 -17 28 C-20.76687864 28 -21.91190305 28.23537317 -25 30 Z M-71 34 C-71.6814823 35.89179203 -71.6814823 35.89179203 -72 38 C-71.34 38.66 -70.68 39.32 -70 40 C-69.01 39.34 -68.02 38.68 -67 38 C-67 37.34 -67 36.68 -67 36 C-68.32 35.34 -69.64 34.68 -71 34 Z M-42.625 35.5 C-43.85089844 35.91765625 -43.85089844 35.91765625 -45.1015625 36.34375 C-45.72804687 36.5603125 -46.35453125 36.776875 -47 37 C-47 37.66 -47 38.32 -47 39 C-42.94633288 41.45325828 -40.07954585 43.03598486 -35.25 42.875 C-32.56017981 42.15081764 -30.37702099 41.42621259 -28 40 C-28 39.34 -28 38.68 -28 38 C-29.28913487 37.32845067 -30.58140204 36.66291141 -31.875 36 C-32.59429687 35.62875 -33.31359375 35.2575 -34.0546875 34.875 C-37.32234986 33.4052081 -39.35214799 34.37787931 -42.625 35.5 Z M-66 45 C-62.76527376 48.607731 -62.76527376 48.607731 -58.625 51 C-54.8527961 51 -52.37710452 49.65544339 -49 48 C-54.92516891 43.34451014 -58.74523507 41.77566003 -66 45 Z M-26 48 C-24.77190909 49.64555699 -24.77190909 49.64555699 -23 51 C-19.62919544 50.78252874 -17.55390936 49.09785412 -15 47 C-15.33 46.01 -15.66 45.02 -16 44 C-20.71906188 44 -22.27037031 45.28754204 -26 48 Z M-44.25 54.5 C-45.30960938 54.91765625 -45.30960938 54.91765625 -46.390625 55.34375 C-46.92171875 55.5603125 -47.4528125 55.776875 -48 56 C-45.16477511 58.83522489 -42.93799924 59.30132272 -39 60 C-36.10762844 59.29836013 -33.72955939 58.24506218 -31 57 C-31 56.34 -31 55.68 -31 55 C-35.86204398 52.83909157 -39.28489624 52.5139585 -44.25 54.5 Z " fill="#E99B07" transform="translate(84,0)"/>
<path d="M0 0 C0.721875 0.4125 1.44375 0.825 2.1875 1.25 C3.0846875 1.62125 3.0846875 1.62125 4 2 C4.721875 1.525625 5.44375 1.05125 6.1875 0.5625 C9.7699847 -1.42776928 11.94505494 -1.06420883 15.9140625 -0.6171875 C18.40213163 0.11898277 19.40225781 0.97619323 21 3 C22.0394775 6.1184325 22.11494838 8.27475586 22.09765625 11.54296875 C22.09443359 12.61611328 22.09121094 13.68925781 22.08789062 14.79492188 C22.07532227 16.47424805 22.07532227 16.47424805 22.0625 18.1875 C22.05798828 19.31865234 22.05347656 20.44980469 22.04882812 21.61523438 C22.03703498 24.41020927 22.0205765 27.2050782 22 30 C19.03 30 16.06 30 13 30 C12.93941406 28.66324219 12.87882812 27.32648437 12.81640625 25.94921875 C12.73199313 24.19530179 12.64734552 22.4413961 12.5625 20.6875 C12.52318359 19.80642578 12.48386719 18.92535156 12.44335938 18.01757812 C12.40146484 17.17001953 12.35957031 16.32246094 12.31640625 15.44921875 C12.27974854 14.66893311 12.24309082 13.88864746 12.20532227 13.0847168 C12.05874737 10.80670899 12.05874737 10.80670899 11 8 C9.35 8.33 7.7 8.66 6 9 C4.9609622 13.42682491 4.68407049 17.78934632 4.4375 22.3125 C4.39431641 23.05306641 4.35113281 23.79363281 4.30664062 24.55664062 C4.20129568 26.37091464 4.10021684 28.1854355 4 30 C1.03 30 -1.94 30 -5 30 C-5.495 18.615 -5.495 18.615 -6 7 C-10.94463635 8.33563616 -10.94463635 8.33563616 -12 11 C-12.15067214 12.4465242 -12.24861036 13.8987934 -12.31640625 15.3515625 C-12.35830078 16.20234375 -12.40019531 17.053125 -12.44335938 17.9296875 C-12.48267578 18.81914063 -12.52199219 19.70859375 -12.5625 20.625 C-12.60568359 21.5221875 -12.64886719 22.419375 -12.69335938 23.34375 C-12.79956715 25.56231239 -12.90029959 27.78113565 -13 30 C-15.97 30 -18.94 30 -22 30 C-22 20.1 -22 10.2 -22 0 C-19.69 0 -17.38 0 -15 0 C-14.34 0.66 -13.68 1.32 -13 2 C-12.34 1.484375 -11.68 0.96875 -11 0.4375 C-7.03122328 -1.46420551 -4.19440896 -1.07072465 0 0 Z " fill="#1A1B36" transform="translate(191,25)"/>
<path d="M0 0 C18 0 18 0 24 3 C27.12199637 7.68299455 26.7019254 12.52208736 26 18 C24.30108268 21.82803258 21.80332026 23.63181155 18 25.375 C15 26 15 26 10 26 C10 30.29 10 34.58 10 39 C6.7 39 3.4 39 0 39 C0 26.13 0 13.26 0 0 Z M10 7 C10 10.63 10 14.26 10 18 C11.98 17.67 13.96 17.34 16 17 C16.67673447 13.59679066 16.67673447 13.59679066 17 10 C14.86132495 7.49152482 14.86132495 7.49152482 10 7 Z " fill="#1A1B36" transform="translate(100,16)"/>
<path d="M0 0 C-0.33 1.32 -0.66 2.64 -1 4 C-13.87 5.98 -26.74 7.96 -40 10 C-38.68 10.66 -37.36 11.32 -36 12 C-36 12.33 -36 12.66 -36 13 C-42.67949314 14.32712425 -48.2967831 15.25685317 -55 14 C-57.32158065 14.34659295 -57.32158065 14.34659295 -59 15 C-59 15.66 -59 16.32 -59 17 C-58.34 17.33 -57.68 17.66 -57 18 C-62.57544089 21.92815153 -62.57544089 21.92815153 -65.03125 22.34375 C-67.89616058 23.29872019 -68.41212788 24.92391888 -69.75 27.5625 C-70.17796875 28.38878906 -70.6059375 29.21507813 -71.046875 30.06640625 C-71.36140625 30.70449219 -71.6759375 31.34257812 -72 32 C-77.26267902 28.15852574 -79.83207458 25.48847457 -81 19 C-76.89041233 20.45044271 -73.56741255 22.51110752 -70 25 C-70 23.35 -70 21.7 -70 20 C-70.77085938 19.63648437 -71.54171875 19.27296875 -72.3359375 18.8984375 C-80.62950257 14.74099485 -80.62950257 14.74099485 -82.6875 10.625 C-82.790625 9.75875 -82.89375 8.8925 -83 8 C-78.3039076 8.80820431 -74.13617751 10.41676141 -69.71875 12.16015625 C-66.93603596 13.01975901 -64.89006349 13.31177055 -62 13 C-61.34 12.34 -60.68 11.68 -60 11 C-60.62044189 10.82871582 -61.24088379 10.65743164 -61.88012695 10.48095703 C-64.69249242 9.70119231 -67.50248664 8.91319683 -70.3125 8.125 C-71.28896484 7.85558594 -72.26542969 7.58617187 -73.27148438 7.30859375 C-74.67817383 6.91220703 -74.67817383 6.91220703 -76.11328125 6.5078125 C-77.40939331 6.14647217 -77.40939331 6.14647217 -78.73168945 5.77783203 C-81 5 -81 5 -84 3 C-84 2.34 -84 1.68 -84 1 C-76.28689674 1.33978428 -69.01353245 2.76420391 -61.54736328 4.62792969 C-51.23474799 7.10550312 -41.91451624 5.32783445 -31.625 3.5625 C-9.22275473 -0.24270407 -9.22275473 -0.24270407 0 0 Z " fill="#8B2F87" transform="translate(84,0)"/>
<path d="M0 0 C3.2792679 2.08680684 5.01792757 3.88654291 6.4375 7.5 C6.90774366 10.88575438 6.75 14.3317458 6.75 17.75 C0.81 17.75 -5.13 17.75 -11.25 17.75 C-9.75 21.75 -9.75 21.75 -7.25 22.75 C-5.20501575 22.66219597 -3.16255052 22.50758462 -1.125 22.3125 C-0.02929688 22.21066406 1.06640625 22.10882813 2.1953125 22.00390625 C3.03835937 21.92011719 3.88140625 21.83632813 4.75 21.75 C4.75 24.06 4.75 26.37 4.75 28.75 C-0.03784566 31.57100765 -4.84331996 31.2671607 -10.25 30.75 C-14.00214351 29.34294618 -16.6976163 27.82684611 -19.25 24.75 C-21.45755947 18.08424727 -21.73207581 12.29365442 -19.25 5.75 C-14.69645056 -1.47287152 -7.93539197 -3.05207383 0 0 Z M-10 7.0625 C-11.44840918 8.6678462 -11.44840918 8.6678462 -11.25 10.75 C-8.28 10.75 -5.31 10.75 -2.25 10.75 C-3.7394911 6.75378756 -3.7394911 6.75378756 -6.1875 5.8125 C-8.33928982 5.53261241 -8.33928982 5.53261241 -10 7.0625 Z " fill="#1A1B36" transform="translate(238.25,25.25)"/>
<path d="M0 0 C-0.375 2.4375 -0.375 2.4375 -1 5 C-1.99 5.495 -1.99 5.495 -3 6 C-3.99 5.67 -4.98 5.34 -6 5 C-7.64279217 4.88207001 -9.29052694 4.82488326 -10.9375 4.8125 C-12.21947266 4.79123047 -12.21947266 4.79123047 -13.52734375 4.76953125 C-16.19137318 5.01783731 -17.75251421 5.5702269 -20 7 C-23.76602915 12.24554061 -23.66455434 17.79749287 -23 24 C-21.72020252 27.98159217 -20.76128153 29.45622748 -17.375 31.875 C-13.01573245 33.32808918 -9.58184673 33.20826576 -5 33 C-5 29.37 -5 25.74 -5 22 C-7.64 22 -10.28 22 -13 22 C-13 20.35 -13 18.7 -13 17 C-8.38 17 -3.76 17 1 17 C1 23.6 1 30.2 1 37 C-6.53115549 39.51038516 -13.82639164 40.34151697 -21.5 37.875 C-25.4614221 34.90393342 -28.4035406 31.78937819 -30 27 C-30.1484944 24.38135839 -30.2310027 21.8067523 -30.25 19.1875 C-30.270625 18.48818359 -30.29125 17.78886719 -30.3125 17.06835938 C-30.3593294 10.81078027 -28.66324464 6.97791254 -24.6875 2.25 C-17.7599317 -3.54982463 -8.09625407 -3.40894908 0 0 Z " fill="#1A1B36" transform="translate(279,17)"/>
<path d="M0 0 C1.98 0 3.96 0 6 0 C6.33 4.62 6.66 9.24 7 14 C7.99 13.34 8.98 12.68 10 12 C14.9905288 11.42731637 17.01303107 11.41512952 21.375 14 C25.14447168 18.30796763 26.00909337 22.01737552 25.9921875 27.5625 C25.58376142 33.52907224 24.44749374 37.37121043 20.3125 41.8125 C16.92774803 43.55061588 13.68550303 43.56924601 10 43 C7 41.5 7 41.5 5 40 C5 40.66 5 41.32 5 42 C3.35 42 1.7 42 0 42 C0 28.14 0 14.28 0 0 Z M8.1875 18.3125 C5.46344947 22.18351917 5.6451717 26.45819774 6 31 C7.10195622 34.89922969 7.55064395 35.7004293 11 38 C14.07665027 37.91778291 14.07665027 37.91778291 17 37 C19.4007075 33.39893875 19.94555907 30.24639268 20 26 C18.99237791 20.97024976 18.99237791 20.97024976 16 17 C11.82681666 16.52929448 11.82681666 16.52929448 8.1875 18.3125 Z " fill="#1A1B36" transform="translate(329,13)"/>
<path d="M0 0 C2.38822614 1.79116961 2.95818959 2.77004276 3.5 5.75 C2.82654832 10.12743589 1.10373928 12.95083196 -2 16 C-5.21623389 18.23417774 -8.54162519 20.16672558 -12 22 C-11.01 22.33 -10.02 22.66 -9 23 C-9.98044145 26.15920024 -10.98301678 26.99003159 -13.875 28.6875 C-18.95723833 30.63890797 -24.58656922 31.16620182 -30 31 C-30.99 30.34 -31.98 29.68 -33 29 C-30.69 28.34 -28.38 27.68 -26 27 C-27.09699219 27.02320312 -28.19398437 27.04640625 -29.32421875 27.0703125 C-30.778639 27.08907921 -32.23306664 27.10727844 -33.6875 27.125 C-34.40873047 27.14175781 -35.12996094 27.15851563 -35.87304688 27.17578125 C-40.02508025 27.21369936 -43.3424503 27.04931356 -47 25 C-47.66 24.01 -48.32 23.02 -49 22 C-46.36 22 -43.72 22 -41 22 C-41.99 21.01 -42.98 20.02 -44 19 C-38.11934005 16.61973288 -34.52814223 17.11046848 -28.625 19.1875 C-23.98737839 20.22696691 -21.48661719 19.41682648 -17 18 C-17 17.34 -17 16.68 -17 16 C-17.78375 15.87625 -18.5675 15.7525 -19.375 15.625 C-22 15 -22 15 -24 13 C-15.99013657 8.9339909 -15.99013657 8.9339909 -12.1875 9.1875 C-11.465625 9.455625 -10.74375 9.72375 -10 10 C-7.99427359 10.81446109 -7.99427359 10.81446109 -6 11 C-3.71252627 9.78469266 -3.71252627 9.78469266 -2 8 C-2 7.34 -2 6.68 -2 6 C-2.66 5.67 -3.32 5.34 -4 5 C-4 4.34 -4 3.68 -4 3 C-2 1.375 -2 1.375 0 0 Z " fill="#5FB2E2" transform="translate(70,39)"/>
<path d="M0 0 C0.33 0 0.66 0 1 0 C1.6120761 7.22249793 1.6120761 7.22249793 -1.3125 10.9375 C-4 13 -4 13 -7 14 C-7 14.66 -7 15.32 -7 16 C-11.89487622 19.04570076 -16.73221304 21.10587601 -22.17578125 22.9921875 C-24.83579792 23.94140507 -27.40557307 25.01133502 -30 26.125 C-37.4326842 29.12643368 -47.49757149 31.93328569 -55.3125 29.1875 C-57 28 -57 28 -59 25 C-58.505 23.515 -58.505 23.515 -58 22 C-56.515 22.99 -56.515 22.99 -55 24 C-48.75700644 23.68751066 -43.28885535 21.98283202 -37.4375 19.875 C-36.56851074 19.5658667 -35.69952148 19.2567334 -34.80419922 18.93823242 C-24.6442399 15.2497214 -14.99218894 11.05414701 -6 5 C-5.071875 4.649375 -4.14375 4.29875 -3.1875 3.9375 C-2.465625 3.628125 -1.74375 3.31875 -1 3 C-0.67 2.01 -0.34 1.02 0 0 Z " fill="#82B61D" transform="translate(73,28)"/>
<path d="M0 0 C1.9375 1.6875 1.9375 1.6875 2.9375 4.6875 C3.01989169 6.53360532 3.04493359 8.38255164 3.03515625 10.23046875 C3.03193359 11.30361328 3.02871094 12.37675781 3.02539062 13.48242188 C3.01701172 14.60197266 3.00863281 15.72152344 3 16.875 C2.99548828 18.00615234 2.99097656 19.13730469 2.98632812 20.30273438 C2.97453498 23.09770927 2.9580765 25.8925782 2.9375 28.6875 C0.27083333 28.6875 -2.39583333 28.6875 -5.0625 28.6875 C-5.7225 29.0175 -6.3825 29.3475 -7.0625 29.6875 C-14.03392857 30.37321429 -14.03392857 30.37321429 -18.0625 27.6875 C-20.28439836 24.35465246 -20.80699798 22.54674799 -20.5546875 18.62109375 C-19.7010783 15.26762905 -17.7554666 13.70722495 -15.0625 11.6875 C-11.40206509 10.04661539 -6.99998164 10.62187531 -3.0625 10.6875 C-3.3925 8.7075 -3.7225 6.7275 -4.0625 4.6875 C-8.57867599 4.61095464 -12.65335217 4.58521304 -17.0625 5.6875 C-17.3925 4.0375 -17.7225 2.3875 -18.0625 0.6875 C-12.470905 -2.294684 -5.77356319 -2.47438422 0 0 Z M-12.0625 16.6875 C-12.7225 17.3475 -13.3825 18.0075 -14.0625 18.6875 C-13.77266731 21.99433466 -13.77266731 21.99433466 -12.0625 24.6875 C-8.8136552 25.12653308 -7.46452585 24.97000465 -4.75 23.0625 C-2.63293413 20.08292581 -2.73726074 18.26513189 -3.0625 14.6875 C-6.89691243 14.6875 -8.68735432 15.08874678 -12.0625 16.6875 Z " fill="#1A1B36" transform="translate(378.0625,26.3125)"/>
<path d="M0 0 C3.72210861 1.61830809 5.89930441 3.53385228 8 7 C9.7250415 12.70222053 9.55137663 18.13144585 7.875 23.8125 C5.61840231 27.64871608 4.04258576 29.12843252 0 31 C-4.29549368 31.66667274 -7.82084189 31.4614097 -11.875 29.875 C-15.45600326 26.71529124 -16.84043896 23.26498843 -17.43359375 18.5625 C-17.44544324 7.75576707 -17.44544324 7.75576707 -15.25 4.25 C-10.66928846 -0.33071154 -6.24846797 -0.72656604 0 0 Z M-9.16796875 6.61328125 C-11.55337441 9.72092061 -11.53563256 11.61605092 -11.5 15.5 C-11.5103125 16.6240625 -11.520625 17.748125 -11.53125 18.90625 C-10.897427 22.59733688 -9.99754431 23.80928134 -7 26 C-3.39969811 26.3309316 -3.39969811 26.3309316 0 25 C3.42486026 20.4703461 3.51887706 16.44820918 3 11 C1.84367254 8.63706998 0.85016245 6.85016245 -1 5 C-4.47816918 4.61353676 -6.31159856 4.4877301 -9.16796875 6.61328125 Z " fill="#1A1B36" transform="translate(315,25)"/>
<path d="M0 0 C-0.33 1.65 -0.66 3.3 -1 5 C-7.81484909 6.54484521 -14.60433201 7.97131637 -21.51025391 9.02929688 C-35.52147103 11.1919177 -49.20481523 13.74562596 -61 22 C-65.70930233 25 -65.70930233 25 -68 25 C-68.33 26.32 -68.66 27.64 -69 29 C-69.66 29 -70.32 29 -71 29 C-70.53815522 24.15062976 -69.4038752 20.50834195 -66 17 C-58.1827253 10.58116442 -49.74284643 8.06136508 -40 6 C-39.21351074 5.82871582 -38.42702148 5.65743164 -37.61669922 5.48095703 C-11.11253284 -0.24925307 -11.11253284 -0.24925307 0 0 Z " fill="#DB5F0D" transform="translate(82,7)"/>
<path d="M0 0 C0 2.97 0 5.94 0 9 C-2.64 9.33 -5.28 9.66 -8 10 C-8.88639389 12.65918166 -9.17989025 14.48064641 -9.31640625 17.23046875 C-9.35830078 18.03291016 -9.40019531 18.83535156 -9.44335938 19.66210938 C-9.48267578 20.49548828 -9.52199219 21.32886719 -9.5625 22.1875 C-9.60568359 23.03248047 -9.64886719 23.87746094 -9.69335938 24.74804688 C-9.79931518 26.83184433 -9.9001502 28.91590103 -10 31 C-12.97 31 -15.94 31 -19 31 C-19 21.1 -19 11.2 -19 1 C-16.69 1 -14.38 1 -12 1 C-11.34 1.66 -10.68 2.32 -10 3 C-8.9171875 2.2575 -8.9171875 2.2575 -7.8125 1.5 C-4.85151341 -0.07919285 -3.28746971 -0.28178312 0 0 Z " fill="#1A1B36" transform="translate(150,24)"/>
<path d="M0 0 C-0.33 1.32 -0.66 2.64 -1 4 C-13.87 5.98 -26.74 7.96 -40 10 C-38.68 10.66 -37.36 11.32 -36 12 C-36 12.33 -36 12.66 -36 13 C-48.48519362 15.66514806 -48.48519362 15.66514806 -55 13 C-55 12.34 -55 11.68 -55 11 C-55.66 10.67 -56.32 10.34 -57 10 C-48.78599666 6.09688337 -40.41232039 4.63587027 -31.5 3.3125 C-30.13655841 3.09933034 -28.77327558 2.88514265 -27.41015625 2.66992188 C-8.80043709 -0.23159045 -8.80043709 -0.23159045 0 0 Z " fill="#DE418E" transform="translate(84,0)"/>
<path d="M0 0 C2.97 0 5.94 0 9 0 C9 9.9 9 19.8 9 30 C6.03 30 3.06 30 0 30 C0 20.1 0 10.2 0 0 Z " fill="#1A1B36" transform="translate(154,25)"/>
<path d="M0 0 C1.98 0 3.96 0 6 0 C6 13.86 6 27.72 6 42 C4.02 42 2.04 42 0 42 C0 28.14 0 14.28 0 0 Z " fill="#1A1B36" transform="translate(388,13)"/>
<path d="M0 0 C1.98 0 3.96 0 6 0 C6 13.86 6 27.72 6 42 C4.02 42 2.04 42 0 42 C0 28.14 0 14.28 0 0 Z " fill="#1A1B36" transform="translate(286,13)"/>
<path d="M0 0 C7.77129084 0.50109755 15.12216052 1.74376182 22.6875 3.5625 C24.18700195 3.91344727 24.18700195 3.91344727 25.71679688 4.27148438 C28.14617428 4.84105133 30.57375133 5.41727652 33 6 C30.06031093 8.50417958 27.86266178 9.63656366 24 10 C21.55224609 9.59448242 21.55224609 9.59448242 19.0234375 8.85546875 C18.105625 8.59056641 17.1878125 8.32566406 16.2421875 8.05273438 C14.82292969 7.62444336 14.82292969 7.62444336 13.375 7.1875 C12.42109375 6.91357422 11.4671875 6.63964844 10.484375 6.35742188 C3.42773069 4.28515379 3.42773069 4.28515379 0 2 C0 1.34 0 0.68 0 0 Z " fill="#DEDDDF" transform="translate(0,1)"/>
<path d="M0 0 C-1.50968654 3.01937308 -3.86741493 3.38078604 -6.953125 4.453125 C-12.47383196 5.92812304 -17.25177413 2.53317261 -22 0 C-14.84903342 -7.50130212 -8.04869183 -4.39205265 0 0 Z " fill="#EDEDEA" transform="translate(47,43)"/>
<path d="M0 0 C4.28379643 0.71260094 8.25093853 2.06921736 12.3125 3.5625 C12.95767578 3.79646484 13.60285156 4.03042969 14.26757812 4.27148438 C15.84621219 4.84447007 17.42327026 5.42179464 19 6 C18.0446655 8.38833625 17.25811002 9.79533126 15.2265625 11.40625 C11.06493727 12.51601673 7.97076463 9.84429008 4.44140625 7.8046875 C2 6 2 6 0.3125 2.625 C0.209375 1.75875 0.10625 0.8925 0 0 Z " fill="#DCDCDE" transform="translate(1,8)"/>
<path d="M0 0 C0.721875 0.515625 1.44375 1.03125 2.1875 1.5625 C2.1875 2.2225 2.1875 2.8825 2.1875 3.5625 C-3.00798134 6.58312868 -3.00798134 6.58312868 -6.25 6.5 C-9.71557658 5.23210613 -12.6583323 3.47973919 -15.8125 1.5625 C-10.9364145 -3.3135855 -5.7573933 -2.94266768 0 0 Z " fill="#E8E6DE" transform="translate(62.8125,32.4375)"/>
<path d="M0 0 C0 0.66 0 1.32 0 2 C-9.26995516 5.47623318 -9.26995516 5.47623318 -13.51171875 4.30859375 C-15.6875 3.1875 -15.6875 3.1875 -19 1 C-12.65597803 -4.0314657 -7.22301524 -3.28318874 0 0 Z " fill="#EFEBE6" transform="translate(46,24)"/>
<path d="M0 0 C2.38822614 1.79116961 2.95818959 2.77004276 3.5 5.75 C2.83007097 10.10453869 0.97594045 12.80486847 -2 16 C-4.3125 17.4375 -4.3125 17.4375 -6 18 C-6.25 14.6875 -6.25 14.6875 -6 11 C-4 9.1875 -4 9.1875 -2 8 C-2 7.34 -2 6.68 -2 6 C-2.66 5.67 -3.32 5.34 -4 5 C-4 4.34 -4 3.68 -4 3 C-2 1.375 -2 1.375 0 0 Z " fill="#2385BC" transform="translate(70,39)"/>
<path d="M0 0 C2.55781612 1.24015327 3.12658802 2.36242986 4.0625 5 C0.95753117 7.35224911 -0.54326394 8.01383284 -4.5 7.875 C-7.77401591 7.04161413 -9.48465851 6.25661417 -11.9375 4 C-4.05767167 0 -4.05767167 0 0 0 Z " fill="#E5E8E2" transform="translate(57.9375,48)"/>
<path d="M0 0 C2.875 0.6875 2.875 0.6875 3.875 1.6875 C4.0625 4.125 4.0625 4.125 3.875 6.6875 C1.875 8.6875 1.875 8.6875 -1.125 8.9375 C-4.125 8.6875 -4.125 8.6875 -6.125 6.6875 C-6.4375 4.1875 -6.4375 4.1875 -6.125 1.6875 C-3.125 -0.3125 -3.125 -0.3125 0 0 Z " fill="#1A1B36" transform="translate(159.125,13.3125)"/>
<path d="M0 0 C-2.88306666 2.88306666 -4.81772889 2.98824057 -8.875 3.25 C-12.65797805 3.22208134 -14.93007588 2.30244309 -18 0 C-17.67 -0.66 -17.34 -1.32 -17 -2 C-11.00784867 -3.88324756 -5.72287188 -2.04388281 0 0 Z " fill="#E7EAE9" transform="translate(44,59)"/>
<path d="M0 0 C4.67105792 1.55701931 8.08705685 4.08447373 12 7 C11.01 8.98 10.02 10.96 9 13 C3.73732098 9.15852574 1.16792542 6.48847457 0 0 Z " fill="#DCDADC" transform="translate(3,19)"/>
<path d="M0 0 C-3.59888085 2.3992539 -5.68673106 2.78787202 -10 3 C-12.82595001 2.22928636 -15.30375836 1.18256212 -18 0 C-17.67 -0.66 -17.34 -1.32 -17 -2 C-10.78015579 -3.82936595 -5.32860038 -3.87534573 0 0 Z " fill="#E7E5E3" transform="translate(66,19)"/>
<path d="M0 0 C-0.33 1.32 -0.66 2.64 -1 4 C-5.95 4.66 -10.9 5.32 -16 6 C-16 4.35 -16 2.7 -16 1 C-10.65097076 0.40801257 -5.39115154 -0.14187241 0 0 Z " fill="#8D368A" transform="translate(84,0)"/>
<path d="M0 0 C-0.98044145 3.15920024 -1.98301678 3.99003159 -4.875 5.6875 C-9.95723833 7.63890797 -15.58656922 8.16620182 -21 8 C-21.99 7.34 -22.98 6.68 -24 6 C-22.35451172 5.72736328 -22.35451172 5.72736328 -20.67578125 5.44921875 C-19.22126033 5.19585059 -17.7668383 4.94191427 -16.3125 4.6875 C-15.2306543 4.51057617 -15.2306543 4.51057617 -14.12695312 4.33007812 C-9.12288314 3.43894237 -4.80247245 0 0 0 Z " fill="#4FA5D6" transform="translate(61,62)"/>
<path d="M0 0 C0.33 0 0.66 0 1 0 C1.25 7.625 1.25 7.625 -1 11 C-2.875 10.75 -2.875 10.75 -5 10 C-6.25 7.9375 -6.25 7.9375 -7 6 C-3.25 3 -3.25 3 -1 3 C-0.67 2.01 -0.34 1.02 0 0 Z " fill="#51A436" transform="translate(73,28)"/>
<path d="M0 0 C2.375 1.375 2.375 1.375 4.375 4.375 C1.6875 6 1.6875 6 -1.625 7.375 C-4.5 6.5625 -4.5 6.5625 -6.625 5.375 C-6.625 2.375 -6.625 2.375 -4.9375 0.5625 C-2.625 -0.625 -2.625 -0.625 0 0 Z " fill="#DCD9DA" transform="translate(20.625,29.625)"/>
<path d="M0 0 C0 0.33 0 0.66 0 1 C-1.89231945 1.39234694 -3.78910657 1.76318316 -5.6875 2.125 C-6.74324219 2.33382813 -7.79898438 2.54265625 -8.88671875 2.7578125 C-12.24397659 3.01897936 -14.0229044 2.49130948 -17 1 C-16.67 0.34 -16.34 -0.32 -16 -1 C-10.66131426 -2.57020169 -4.82525139 -3.08816089 0 0 Z " fill="#F2ECEA" transform="translate(48,12)"/>
<path d="M0 0 C4.51478398 0.53115106 7.34666857 2.36620292 11 5 C7.75173326 7.16551116 6.76905843 7.55156953 3 7 C0.6875 5 0.6875 5 -1 3 C-0.67 2.01 -0.34 1.02 0 0 Z " fill="#D6D9D5" transform="translate(15,46)"/>
<path d="M0 0 C1.8871875 0.0309375 1.8871875 0.0309375 3.8125 0.0625 C3.8125 1.3825 3.8125 2.7025 3.8125 4.0625 C0.1825 4.3925 -3.4475 4.7225 -7.1875 5.0625 C-7.1875 3.7425 -7.1875 2.4225 -7.1875 1.0625 C-4.43671116 0.14557039 -2.82801087 -0.04636083 0 0 Z " fill="#C54992" transform="translate(64.1875,1.9375)"/>
<path d="M0 0 C1.65 1.65 3.3 3.3 5 5 C4.360625 5.28875 3.72125 5.5775 3.0625 5.875 C0.84793921 6.82823451 0.84793921 6.82823451 0 9 C-1.98 7.35 -3.96 5.7 -6 4 C-4.03617993 2.49440461 -2.21736634 1.10868317 0 0 Z " fill="#7CB623" transform="translate(65,35)"/>
<path d="M0 0 C4.95 0.33 9.9 0.66 15 1 C14.34 2.32 13.68 3.64 13 5 C11.39479996 4.93976735 9.79065673 4.85091401 8.1875 4.75 C6.84751953 4.68039063 6.84751953 4.68039063 5.48046875 4.609375 C3 4 3 4 0 0 Z " fill="#1B89C0" transform="translate(21,61)"/>
<path d="M0 0 C-3.77312992 3.94463583 -3.77312992 3.94463583 -7.1640625 4.09765625 C-8.38222656 4.08025391 -8.38222656 4.08025391 -9.625 4.0625 C-10.85089844 4.04896484 -10.85089844 4.04896484 -12.1015625 4.03515625 C-13.04128906 4.01775391 -13.04128906 4.01775391 -14 4 C-13 2 -13 2 -9.8125 0.875 C-6.36250398 0.08319763 -3.515707 -0.1714979 0 0 Z " fill="#E5EDF2" transform="translate(58,62)"/>
<path d="M0 0 C0.99 0.99 1.98 1.98 3 3 C2.34 4.32 1.68 5.64 1 7 C-1.475 6.01 -1.475 6.01 -4 5 C-4 4.34 -4 3.68 -4 3 C-2 1.375 -2 1.375 0 0 Z " fill="#D7DAD9" transform="translate(70,39)"/>
<path d="M0 0 C-0.33 1.65 -0.66 3.3 -1 5 C-2.875 4.6875 -2.875 4.6875 -5 4 C-5.66 3.01 -6.32 2.02 -7 1 C-3.375 -1.125 -3.375 -1.125 0 0 Z " fill="#DBD6CD" transform="translate(73,26)"/>
<path d="M0 0 C0 2.31 0 4.62 0 7 C-1.98 7.99 -1.98 7.99 -4 9 C-4.1875 5.625 -4.1875 5.625 -4 2 C-1 0 -1 0 0 0 Z " fill="#3E9BCF" transform="translate(68,48)"/>
<path d="M0 0 C1.32 0.66 2.64 1.32 4 2 C1.1875 4.0625 1.1875 4.0625 -2 6 C-2.99 5.67 -3.98 5.34 -5 5 C-3.35 3.35 -1.7 1.7 0 0 Z " fill="#DBD6D7" transform="translate(23,16)"/>
<path d="M0 0 C1.98 0 3.96 0 6 0 C5.67 1.32 5.34 2.64 5 4 C3.35 4 1.7 4 0 4 C0 2.68 0 1.36 0 0 Z " fill="#6A2A85" transform="translate(78,0)"/>
<path d="M0 0 C1.4731994 2.74997221 2.22404875 4.89619499 3 8 C0.69 6.35 -1.62 4.7 -4 3 C-2.68 2.01 -1.36 1.02 0 0 Z " fill="#9CC325" transform="translate(63,36)"/>
<path d="M0 0 C1.65 0 3.3 0 5 0 C5 1.32 5 2.64 5 4 C3.35 4 1.7 4 0 4 C0 2.68 0 1.36 0 0 Z " fill="#AD418F" transform="translate(63,2)"/>
<path d="M0 0 C0 0.66 0 1.32 0 2 C-6.625 3.25 -6.625 3.25 -10 1 C-6.56484998 0.37542727 -3.50935186 0 0 0 Z " fill="#1C89C0" transform="translate(47,67)"/>
<path d="M0 0 C1.98 0 3.96 0 6 0 C3.82575883 2.50037734 2.26954202 3.43628586 -1 4 C-0.67 2.68 -0.34 1.36 0 0 Z " fill="#E0E7EB" transform="translate(52,62)"/>
<path d="M0 0 C0 0.99 0 1.98 0 3 C-1.32 3.33 -2.64 3.66 -4 4 C-4.66 3.01 -5.32 2.02 -6 1 C-4 0 -4 0 0 0 Z " fill="#BE2883" transform="translate(29,11)"/>
</svg>
