<?xml version="1.0" encoding="UTF-8"?>
<svg version="1.1" xmlns="http://www.w3.org/2000/svg" width="100" height="93">
<path d="M0 0 C3.44893844 1.47971211 5.64482454 3.42359532 8.2578125 6.09765625 C9.04800781 6.89880859 9.83820312 7.69996094 10.65234375 8.52539062 C11.46832031 9.36263672 12.28429688 10.19988281 13.125 11.0625 C14.75038706 12.72222622 16.37788627 14.37988747 18.0078125 16.03515625 C18.72598145 16.7712915 19.44415039 17.50742676 20.18408203 18.26586914 C21.89521545 20.07023007 21.89521545 20.07023007 24 21 C24 24 24 24 21.85546875 26.3359375 C20.91316406 27.21507813 19.97085938 28.09421875 19 29 C17.10276734 30.87361566 15.20695637 32.74858607 13.3125 34.625 C12.82716797 35.10195313 12.34183594 35.57890625 11.84179688 36.0703125 C9.60414685 38.29253046 7.7575391 40.36369136 6 43 C6.68707031 42.96519531 7.37414063 42.93039063 8.08203125 42.89453125 C8.98308594 42.86746094 9.88414063 42.84039062 10.8125 42.8125 C12.15248047 42.76029297 12.15248047 42.76029297 13.51953125 42.70703125 C16 43 16 43 17.84375 44.34375 C19 46 19 46 18.6875 48.6875 C18.460625 49.450625 18.23375 50.21375 18 51 C17.34 51 16.68 51 16 51 C16.33 49.35 16.66 47.7 17 46 C10.58440889 45.54174349 6.40664019 46.45936837 1 50 C-1.42072212 52.08136655 -1.42072212 52.08136655 -3 54 C0.4724205 54.86810513 2.58131391 54.88224157 6 54 C7.33333333 54.33333333 8.66666667 54.66666667 10 55 C11.34061543 54.69728039 12.67405895 54.36162029 14 54 C14.78503906 54.04769531 15.57007813 54.09539063 16.37890625 54.14453125 C19.55300199 53.9695066 20.59915446 53.14829322 23 51.125 C28.77416275 46.55737872 32.71394171 45.64166926 40 46 C40.66 46.33 41.32 46.66 42 47 C42 48.98 42 50.96 42 53 C40.515 53.495 40.515 53.495 39 54 C39.33 52.35 39.66 50.7 40 49 C33.21724151 48.38338559 28.36372978 49.62702285 23 54 C21.62810173 57.02982306 21.62810173 57.02982306 21 60 C19.33203125 61.71484375 19.33203125 61.71484375 17 63 C14.1875 62.87109375 14.1875 62.87109375 11 62.4375 C6.44966107 62.26744203 3.89640825 62.7301583 0.48046875 65.66015625 C-2.55426456 68.59994374 -5.31078946 71.74387481 -8 75 C-8.66 74.67 -9.32 74.34 -10 74 C-8.4133925 69.09594044 -6.64077994 67.36893593 -3 63 C-10.92 63 -18.84 63 -27 63 C-25.84349112 58.3739645 -24.8045251 57.626934 -21 55 C-18 54 -18 54 -15.75 54.625 C-10.71971816 55.31094752 -6.99029144 52.73745107 -3.0625 49.8125 C-2.381875 49.214375 -1.70125 48.61625 -1 48 C-1.350625 47.443125 -1.70125 46.88625 -2.0625 46.3125 C-3.24837919 43.38733132 -2.64694301 42.06423681 -2 39 C-1.35650744 31.04601003 -2.08339118 24.87330163 -5.09765625 17.50390625 C-6.80929526 12.75429324 -6.81769366 8.7911385 -4.6875 4.125 C-3 2 -3 2 0 0 Z " fill="#C7382E" transform="translate(50,6)"/>
<path d="M0 0 C2.0625 1.1875 2.0625 1.1875 3 3 C2.6875 5.6875 2.6875 5.6875 2 8 C1.34 8 0.68 8 0 8 C0.33 6.35 0.66 4.7 1 3 C-5.41559111 2.54174349 -9.59335981 3.45936837 -15 7 C-17.42072212 9.08136655 -17.42072212 9.08136655 -19 11 C-15.5275795 11.86810513 -13.41868609 11.88224157 -10 11 C-8.66666667 11.33333333 -7.33333333 11.66666667 -6 12 C-4.65938457 11.69728039 -3.32594105 11.36162029 -2 11 C-1.21496094 11.04769531 -0.42992187 11.09539063 0.37890625 11.14453125 C3.55300199 10.9695066 4.59915446 10.14829322 7 8.125 C12.77416275 3.55737872 16.71394171 2.64166926 24 3 C24.99 3.495 24.99 3.495 26 4 C26 5.98 26 7.96 26 10 C25.01 10.33 24.02 10.66 23 11 C23.33 9.35 23.66 7.7 24 6 C17.21724151 5.38338559 12.36372978 6.62702285 7 11 C5.62810173 14.02982306 5.62810173 14.02982306 5 17 C3.33203125 18.71484375 3.33203125 18.71484375 1 20 C-1.8125 19.87109375 -1.8125 19.87109375 -5 19.4375 C-9.55033893 19.26744203 -12.10359175 19.7301583 -15.51953125 22.66015625 C-18.55426456 25.59994374 -21.31078946 28.74387481 -24 32 C-24.66 31.67 -25.32 31.34 -26 31 C-24.4133925 26.09594044 -22.64077994 24.36893593 -19 20 C-26.92 20 -34.84 20 -43 20 C-41.84349112 15.3739645 -40.8045251 14.626934 -37 12 C-34 11 -34 11 -31.75 11.625 C-26.91913531 12.28375428 -23.48187865 10.10249735 -19.7265625 7.30859375 C-18.205884 6.09861866 -16.69942534 4.87045629 -15.2109375 3.62109375 C-10.22167562 -0.03711063 -6.00301314 -0.48411396 0 0 Z " fill="#FAFAFA" transform="translate(66,49)"/>
<path d="M0 0 C0.2568091 3.20674061 0.47543559 6.41501455 0.6875 9.625 C0.76033203 10.52863281 0.83316406 11.43226562 0.90820312 12.36328125 C1.24128025 17.73170074 1.17273358 21.39699522 -2 26 C-2.99 26.66 -3.98 27.32 -5 28 C-8.63 24.37 -12.26 20.74 -16 17 C-14.36591376 13.73182753 -13.45129642 12.20171374 -10.99609375 9.765625 C-10.13274414 8.90517578 -10.13274414 8.90517578 -9.25195312 8.02734375 C-8.65318359 7.44082031 -8.05441406 6.85429687 -7.4375 6.25 C-6.83486328 5.64800781 -6.23222656 5.04601562 -5.61132812 4.42578125 C-1.14038584 0 -1.14038584 0 0 0 Z " fill="#C33531" transform="translate(43,13)"/>
<path d="M0 0 C15.51 0 31.02 0 47 0 C47.495 1.98 47.495 1.98 48 4 C47 5 47 5 44.4375 5.0625 C43.2309375 5.0315625 43.2309375 5.0315625 42 5 C42 4.01 42 3.02 42 2 C41.34 2 40.68 2 40 2 C40 2.99 40 3.98 40 5 C26.14 5 12.28 5 -2 5 C-1.34 3.35 -0.68 1.7 0 0 Z M34 2 C35 4 35 4 35 4 Z " fill="#EB1F27" transform="translate(22,82)"/>
<path d="M0 0 C2.31 1.98 4.62 3.96 7 6 C7.73089844 6.59167969 8.46179688 7.18335938 9.21484375 7.79296875 C9.78332031 8.25316406 10.35179688 8.71335937 10.9375 9.1875 C11.52402344 9.65542969 12.11054687 10.12335937 12.71484375 10.60546875 C14 12 14 12 14 15 C12.91514569 16.1865594 11.81395258 17.3617858 10.640625 18.4609375 C8.61961244 20.35683976 6.69184264 22.33573214 4.75 24.3125 C3.52081376 25.56248075 2.27634288 26.79820986 1 28 C0.67 28 0.34 28 0 28 C0 18.76 0 9.52 0 0 Z " fill="#993428" transform="translate(60,15)"/>
<path d="M0 0 C0 0.66 0 1.32 0 2 C-1.3303125 1.87625 -1.3303125 1.87625 -2.6875 1.75 C-6.90363289 2.06819871 -7.98566093 3.0591814 -11 6 C-12.10719698 7.33081804 -13.21110724 8.66437438 -14.3125 10 C-17.62331703 13.8518002 -20.99266648 16.72197764 -26 18 C-29 17.25 -29 17.25 -31 16 C-31.5 12.9375 -31.5 12.9375 -31 9 C-28.07275428 5.37477355 -24.85622694 2.57730868 -20.375 1.18359375 C-18 1 -18 1 -15.6875 2.9375 C-14.8521875 3.9584375 -14.8521875 3.9584375 -14 5 C-13.05125 4.195625 -12.1025 3.39125 -11.125 2.5625 C-7.06108962 -0.88298923 -5.32495412 -1.04183885 0 0 Z M-29 10 C-28.67 10.99 -28.34 11.98 -28 13 C-25.10957447 12.91498748 -23.43757032 12.41707522 -21.33203125 10.41015625 C-18.42795394 7.54012151 -18.42795394 7.54012151 -17 4 C-22.54227839 2.99231302 -25.29341001 6.41090998 -29 10 Z M-30 12 C-29 14 -29 14 -29 14 Z " fill="#FFFFFF" transform="translate(40,53)"/>
<path d="M0 0 C2.0625 1.1875 2.0625 1.1875 3 3 C2.6875 5.6875 2.6875 5.6875 2 8 C1.34 8 0.68 8 0 8 C0.33 6.35 0.66 4.7 1 3 C-9.73206524 2.23342391 -15.9594661 7.37400447 -24 14 C-24.66 13.34 -25.32 12.68 -26 12 C-10.33415092 -1.2260857 -10.33415092 -1.2260857 0 0 Z " fill="#F2F2F2" transform="translate(66,49)"/>
<path d="M0 0 C0 4.95 0 9.9 0 15 C-5.46875 10.703125 -5.46875 10.703125 -7 9 C-7 5 -7 5 -4.625 2.25 C-2 0 -2 0 0 0 Z " fill="#A1312D" transform="translate(35,22)"/>
<path d="M0 0 C-1.65 1.98 -3.3 3.96 -5 6 C-5.66 5.67 -6.32 5.34 -7 5 C-6.34 4.01 -5.68 3.02 -5 2 C-5.70125 3.010625 -6.4025 4.02125 -7.125 5.0625 C-8.48828125 6.73046875 -8.48828125 6.73046875 -10 8 C-13.3125 7.875 -13.3125 7.875 -16 7 C-12.55105348 1.21069692 -12.55105348 1.21069692 -9.875 0.1875 C-9.25625 0.125625 -8.6375 0.06375 -8 0 C-5.13822943 -1.43088528 -3.06624227 -0.59991697 0 0 Z " fill="#F6F6F6" transform="translate(68,61)"/>
<path d="M0 0 C0 6.93 0 13.86 0 21 C-0.99 20.67 -1.98 20.34 -3 20 C-3.24858198 17.22965863 -3.47452879 14.46060931 -3.6875 11.6875 C-3.76033203 10.90181641 -3.83316406 10.11613281 -3.90820312 9.30664062 C-3.96298828 8.54931641 -4.01777344 7.79199219 -4.07421875 7.01171875 C-4.13182373 6.31522217 -4.18942871 5.61872559 -4.2487793 4.90112305 C-3.95320663 2.64241416 -2.61524615 0 0 0 Z " fill="#B13430" transform="translate(38,18)"/>
<path d="M0 0 C0.33 0 0.66 0 1 0 C1.22702385 3.22813558 1.42828723 6.45738689 1.625 9.6875 C1.68945312 10.59951172 1.75390625 11.51152344 1.8203125 12.45117188 C2.30707097 20.81733316 2.30707097 20.81733316 0 25 C-0.33 25 -0.66 25 -1 25 C-1.02886984 21.02084841 -1.04675406 17.04172347 -1.0625 13.0625 C-1.07087891 11.92619141 -1.07925781 10.78988281 -1.08789062 9.61914062 C-1.09111328 8.53955078 -1.09433594 7.45996094 -1.09765625 6.34765625 C-1.10289307 5.34742432 -1.10812988 4.34719238 -1.11352539 3.31665039 C-1 1 -1 1 0 0 Z " fill="#D63631" transform="translate(42,13)"/>
<path d="M0 0 C3.3 0 6.6 0 10 0 C10 1.65 10 3.3 10 5 C6.7 5 3.4 5 0 5 C0 3.35 0 1.7 0 0 Z " fill="#EC2028" transform="translate(71,82)"/>
<path d="M0 0 C0.66 0.33 1.32 0.66 2 1 C2 1.66 2 2.32 2 3 C5.93075644 2.42547254 5.93075644 2.42547254 9 0 C9.33 0.99 9.66 1.98 10 3 C10.66 3.33 11.32 3.66 12 4 C6.39 4 0.78 4 -5 4 C-3.68 3.34 -2.36 2.68 -1 2 C-0.67 1.34 -0.34 0.68 0 0 Z " fill="#F1F1F1" transform="translate(30,65)"/>
<path d="M0 0 C0.66 0 1.32 0 2 0 C2 2.97 2 5.94 2 9 C0.35 7.68 -1.3 6.36 -3 5 C-1.125 1.125 -1.125 1.125 0 0 Z " fill="#8F2D2A" transform="translate(30,25)"/>
<path d="M0 0 C-1.65 1.98 -3.3 3.96 -5 6 C-5.66 5.67 -6.32 5.34 -7 5 C-6.34 4.01 -5.68 3.02 -5 2 C-6.32 2.99 -7.64 3.98 -9 5 C-8.625 2.5625 -8.625 2.5625 -8 0 C-5.13822943 -1.43088528 -3.06624227 -0.59991697 0 0 Z " fill="#EEEEEE" transform="translate(68,61)"/>
<path d="M0 0 C2.97 0 5.94 0 9 0 C9 1.98 9 3.96 9 6 C8.01 6.33 7.02 6.66 6 7 C6.33 5.35 6.66 3.7 7 2 C4.69 1.67 2.38 1.34 0 1 C0 0.67 0 0.34 0 0 Z " fill="#FDFDFD" transform="translate(83,53)"/>
</svg>
