<?xml version="1.0" encoding="UTF-8"?>
<svg version="1.1" xmlns="http://www.w3.org/2000/svg" width="222" height="112">
<path d="M0 0 C0 14.52 0 29.04 0 44 C12.87 44 25.74 44 39 44 C39 61.49 39 78.98 39 97 C28 102 28 102 26 102 C26 87.48 26 72.96 26 58 C13.13 58 0.26 58 -13 58 C-13 40.51 -13 23.02 -13 5 C-2 0 -2 0 0 0 Z " fill="#CF152D" transform="translate(17,5)"/>
<path d="M0 0 C2.99452434 2.24589325 3.81623122 3.44869367 5 7 C5.4125 6.236875 5.825 5.47375 6.25 4.6875 C8.04338625 1.93337112 9.10801685 0.52632444 12 -1 C17.02301197 -1.54796494 19.94146183 -1.01491407 24 2 C26.47035712 4.47035712 26.35042281 5.3960007 26.4375 8.8125 C26.3361162 12.49966877 26.07623995 13.87293342 24.125 17.125 C19.73486171 19.75908298 15.99644089 20.04024261 11 19 C7.875 16.6875 7.875 16.6875 6 14 C6 13.01 6 12.02 6 11 C5.34 11 4.68 11 4 11 C3.9175 11.763125 3.835 12.52625 3.75 13.3125 C2.82351546 16.63240293 1.90914379 17.24647464 -1 19 C-4.40456443 19.66430525 -7.58443874 19.5858406 -11 19 C-14.48010588 16.58523266 -15.68025219 15.02319299 -16.9375 11 C-17.02231786 6.92874256 -16.14281536 4.39125348 -13.5625 1.25 C-9.52131702 -1.98294639 -4.72205393 -1.1186059 0 0 Z M-9.875 5.125 C-11.39463316 7.65772193 -11.50819361 9.0960365 -11 12 C-9.42304368 14.0785608 -9.42304368 14.0785608 -7 15 C-4.60736593 14.33228817 -2.77902615 13.77902615 -1 12 C-1.28730055 9.66055264 -1.61936779 7.3260857 -2 5 C-6.07079208 3.8491686 -6.07079208 3.8491686 -9.875 5.125 Z M12.25 5.1875 C10.5421277 7.66391483 10.48439167 9.05366671 11 12 C12.57695632 14.0785608 12.57695632 14.0785608 15 15 C17.39263407 14.33228817 19.22097385 13.77902615 21 12 C21.29978682 9.15202522 21.40071289 7.58103368 19.75 5.1875 C17.0991395 3.3887018 14.9008605 3.3887018 12.25 5.1875 Z " fill="#1D1D1B" transform="translate(193,34)"/>
<path d="M0 0 C2.31 0 4.62 0 7 0 C7 13.53 7 27.06 7 41 C1.52033948 38.26016974 1.52033948 38.26016974 0 36 C-0.26159322 33.20010871 -0.34904338 30.62772071 -0.29296875 27.83203125 C-0.28872391 27.03721848 -0.28447906 26.2424057 -0.28010559 25.42350769 C-0.2633193 22.88615979 -0.22566824 20.34960762 -0.1875 17.8125 C-0.17245305 16.09180835 -0.15876466 14.37110424 -0.14648438 12.65039062 C-0.11341607 8.43328738 -0.06163495 4.21677858 0 0 Z " fill="#CF152D" transform="translate(30,68)"/>
<path d="M0 0 C5.47966052 2.73983026 5.47966052 2.73983026 7 5 C7.26159322 7.79989129 7.34904338 10.37227929 7.29296875 13.16796875 C7.28872391 13.96278152 7.28447906 14.7575943 7.28010559 15.57649231 C7.2633193 18.11384021 7.22566824 20.65039238 7.1875 23.1875 C7.17245305 24.90819165 7.15876466 26.62889576 7.14648438 28.34960938 C7.11341607 32.56671262 7.06163495 36.78322142 7 41 C4.69 41 2.38 41 0 41 C0 27.47 0 13.94 0 0 Z " fill="#CF152D" transform="translate(23,3)"/>
<path d="M0 0 C5.28 0 10.56 0 16 0 C16 1.65 16 3.3 16 5 C12.7 5 9.4 5 6 5 C6 5.66 6 6.32 6 7 C8.97 7 11.94 7 15 7 C15 8.65 15 10.3 15 12 C12.03 12 9.06 12 6 12 C6 12.99 6 13.98 6 15 C9.3 15 12.6 15 16 15 C16 16.65 16 18.3 16 20 C10.72 20 5.44 20 0 20 C0 13.4 0 6.8 0 0 Z " fill="#1D1D1B" transform="translate(138,59)"/>
<path d="M0 0 C2.31 0 4.62 0 7 0 C7 11.55 7 23.1 7 35 C3.3515435 33.17577175 1.45323864 32.14838473 -1 29 C-1.4699707 25.99145508 -1.4699707 25.99145508 -1.42578125 22.51953125 C-1.41740234 21.27365234 -1.40902344 20.02777344 -1.40039062 18.74414062 C-1.37138672 17.44669922 -1.34238281 16.14925781 -1.3125 14.8125 C-1.30283203 13.50345703 -1.29316406 12.19441406 -1.28320312 10.84570312 C-1.16768973 1.16768973 -1.16768973 1.16768973 0 0 Z " fill="#CF152D" transform="translate(17,68)"/>
<path d="M0 0 C1.98 0 3.96 0 6 0 C6 2.64 6 5.28 6 8 C8.31 8 10.62 8 13 8 C13 5.36 13 2.72 13 0 C14.65 0 16.3 0 18 0 C18 6.6 18 13.2 18 20 C16.35 20 14.7 20 13 20 C13 17.69 13 15.38 13 13 C10.69 13 8.38 13 6 13 C6 15.31 6 17.62 6 20 C4.02 20 2.04 20 0 20 C0 13.4 0 6.8 0 0 Z " fill="#1D1D1B" transform="translate(91,33)"/>
<path d="M0 0 C5.28 0 10.56 0 16 0 C16 1.65 16 3.3 16 5 C12.7 5 9.4 5 6 5 C6 5.99 6 6.98 6 8 C8.64 8 11.28 8 14 8 C14 9.32 14 10.64 14 12 C11.36 12 8.72 12 6 12 C6 12.99 6 13.98 6 15 C9.3 15 12.6 15 16 15 C16 16.65 16 18.3 16 20 C10.72 20 5.44 20 0 20 C0 13.4 0 6.8 0 0 Z " fill="#1D1D1B" transform="translate(112,33)"/>
<path d="M0 0 C4.95 0 9.9 0 15 0 C15 1.65 15 3.3 15 5 C11.7 5 8.4 5 5 5 C5 5.66 5 6.32 5 7 C7.97 7 10.94 7 14 7 C14 8.65 14 10.3 14 12 C11.03 12 8.06 12 5 12 C5 12.99 5 13.98 5 15 C8.3 15 11.6 15 15 15 C15 16.65 15 18.3 15 20 C10.05 20 5.1 20 0 20 C0 13.4 0 6.8 0 0 Z " fill="#1D1D1B" transform="translate(157,59)"/>
<path d="M0 0 C1.65 0 3.3 0 5 0 C5 2.64 5 5.28 5 8 C7.31 8 9.62 8 12 8 C12 5.36 12 2.72 12 0 C13.65 0 15.3 0 17 0 C17 6.6 17 13.2 17 20 C15.35 20 13.7 20 12 20 C12 17.69 12 15.38 12 13 C9.69 13 7.38 13 5 13 C5 15.31 5 17.62 5 20 C3.35 20 1.7 20 0 20 C0 13.4 0 6.8 0 0 Z " fill="#1D1D1B" transform="translate(157,33)"/>
<path d="M0 0 C1.65 0 3.3 0 5 0 C5.33 1.98 5.66 3.96 6 6 C6.70125 5.01 7.4025 4.02 8.125 3 C10.32959535 0.30900395 10.64418661 0.04028076 14.3125 -0.375 C15.199375 -0.25125 16.08625 -0.1275 17 0 C15.68775452 3.93673644 14.08089673 6.22719294 11 9 C12.1357441 11.55542423 13.34872527 13.43077828 15.125 15.625 C17 18 17 18 17 20 C13.75 20.3125 13.75 20.3125 10 20 C7.5625 17.5 7.5625 17.5 6 15 C5.67 16.65 5.34 18.3 5 20 C3.35 20 1.7 20 0 20 C0 13.4 0 6.8 0 0 Z " fill="#1D1D1B" transform="translate(139,33)"/>
<path d="M0 0 C5.37300345 2.68650172 5.37300345 2.68650172 7 5 C7.34057617 8.09448242 7.34057617 8.09448242 7.29296875 11.85546875 C7.28872391 12.51710526 7.28447906 13.17874176 7.28010559 13.86042786 C7.26333693 15.9698691 7.22569099 18.07834846 7.1875 20.1875 C7.17245068 21.61912681 7.1587627 23.05076862 7.14648438 24.48242188 C7.1134403 27.98859288 7.06167167 31.49420254 7 35 C4.69 35 2.38 35 0 35 C0 23.45 0 11.9 0 0 Z " fill="#CF152D" transform="translate(36,9)"/>
<path d="M0 0 C0.66 0.33 1.32 0.66 2 1 C2 2.98 2 4.96 2 7 C-0.64 6.67 -3.28 6.34 -6 6 C-1.545 7.98 -1.545 7.98 3 10 C3.29296875 16.0546875 3.29296875 16.0546875 3 18 C-0.39249348 20.26166232 -1.65201501 20.24515545 -5.625 20.1875 C-6.60726562 20.18105469 -7.58953125 20.17460938 -8.6015625 20.16796875 C-11 20 -11 20 -12 19 C-12.04063832 17.33382885 -12.042721 15.66611905 -12 14 C-9.03 14.33 -6.06 14.66 -3 15 C-5.91403262 13.05731159 -8.85808576 11.53604696 -12 10 C-12.48137536 3.6217765 -12.48137536 3.6217765 -10.5 1.0625 C-6.82916102 -0.49760657 -3.98249921 -0.25693543 0 0 Z " fill="#1D1D1B" transform="translate(86,33)"/>
<path d="M0 0 C0.99386719 0.02707031 1.98773438 0.05414063 3.01171875 0.08203125 C4.15060547 0.13423828 4.15060547 0.13423828 5.3125 0.1875 C5.3125 2.1675 5.3125 4.1475 5.3125 6.1875 C3.0025 5.8575 0.6925 5.5275 -1.6875 5.1875 C-1.11 5.455625 -0.5325 5.72375 0.0625 6 C4.5625 8.375 4.5625 8.375 6.3125 10.1875 C6.8125 13.6875 6.8125 13.6875 6.3125 17.1875 C4.8125 19.125 4.8125 19.125 2.3125 20.1875 C-1.9872237 20.72388404 -4.97708674 20.66110884 -8.6875 18.1875 C-8.6875 16.5375 -8.6875 14.8875 -8.6875 13.1875 C-3.7375 14.1775 -3.7375 14.1775 1.3125 15.1875 C1.3125 14.5275 1.3125 13.8675 1.3125 13.1875 C-0.70572917 12.73177083 -2.72395833 12.27604167 -4.7421875 11.8203125 C-6.6875 11.1875 -6.6875 11.1875 -8.6875 9.1875 C-9.24085479 3.98596497 -9.24085479 3.98596497 -7.5234375 1.5078125 C-4.95632578 -0.33832316 -3.12415913 -0.11026444 0 0 Z " fill="#1D1D1B" transform="translate(113.6875,58.8125)"/>
<path d="M0 0 C5.61 0 11.22 0 17 0 C17 1.65 17 3.3 17 5 C15.02 5 13.04 5 11 5 C11 9.95 11 14.9 11 20 C9.35 20 7.7 20 6 20 C6 15.05 6 10.1 6 5 C4.02 5 2.04 5 0 5 C0 3.35 0 1.7 0 0 Z " fill="#1D1D1B" transform="translate(120,59)"/>
<path d="M0 0 C1.65 0 3.3 0 5 0 C5 4.95 5 9.9 5 15 C7.97 15 10.94 15 14 15 C14 16.65 14 18.3 14 20 C9.38 20 4.76 20 0 20 C0 13.4 0 6.8 0 0 Z " fill="#1D1D1B" transform="translate(175,59)"/>
<path d="M0 0 C2.31 0 4.62 0 7 0 C7 7.59 7 15.18 7 23 C0 17 0 17 -0.68359375 12.6953125 C-0.63758231 11.17036205 -0.55480732 9.64612785 -0.4375 8.125 C-0.40591797 7.34125 -0.37433594 6.5575 -0.34179688 5.75 C-0.25991808 3.8316967 -0.13437256 1.91534219 0 0 Z " fill="#CF152D" transform="translate(4,68)"/>
<path d="M0 0 C7 6 7 6 7.68359375 10.3046875 C7.63758231 11.82963795 7.55480732 13.35387215 7.4375 14.875 C7.39012695 16.050625 7.39012695 16.050625 7.34179688 17.25 C7.25991808 19.1683033 7.13437256 21.08465781 7 23 C4.69 23 2.38 23 0 23 C0 15.41 0 7.82 0 0 Z " fill="#CF152D" transform="translate(49,21)"/>
<path d="M0 0 C1.98 0 3.96 0 6 0 C6 6.6 6 13.2 6 20 C4.02 20 2.04 20 0 20 C0 13.4 0 6.8 0 0 Z " fill="#1D1D1B" transform="translate(130,33)"/>
</svg>
