<svg width="122" height="19" viewBox="0 0 122 19" fill="none" xmlns="http://www.w3.org/2000/svg">
<g clip-path="url(#clip0_9_342)">
<path d="M77.3853 0.333056V0.649438H78.5621V3.83289H78.9193V0.649438H80.0961V0.333056H77.3853Z" fill="#35A3D4"/>
<path d="M81.4283 0.332812L79.9084 3.83264H80.3017L80.6833 2.91333H82.5007L82.8877 3.83264H83.2858L81.7761 0.332812H81.4283ZM81.5916 0.728485L82.3665 2.58674H80.8167L81.5916 0.728485Z" fill="#35A3D4"/>
<mask id="mask0_9_342" style="mask-type:luminance" maskUnits="userSpaceOnUse" x="83" y="0" width="3" height="4">
<path d="M84.7982 0.245284C84.2816 0.245284 83.67 0.531049 83.67 1.20307C83.67 1.84054 84.1521 2.04387 84.6192 2.18754C85.0659 2.32493 85.4788 2.44897 85.4788 2.93728C85.4788 3.38791 85.0612 3.61558 84.6985 3.61558C84.331 3.61558 84.0476 3.42245 83.8938 3.17516L83.5852 3.40283C83.8396 3.74904 84.2667 3.92175 84.6938 3.92175C85.2496 3.92175 85.8462 3.61558 85.8462 2.91294C85.8462 2.21109 85.2951 2.05329 84.7982 1.89079C84.4049 1.76203 84.0327 1.6482 84.0327 1.20307C84.0327 0.753223 84.4347 0.545967 84.7832 0.545967C85.1153 0.545967 85.3587 0.684138 85.5079 0.896891L85.7913 0.669221C85.6225 0.442336 85.27 0.245284 84.7982 0.245284Z" fill="white"/>
</mask>
<g mask="url(#mask0_9_342)">
<path d="M83.4863 0.144511H85.9451V4.02039H83.4863V0.144511Z" fill="#35A3D4"/>
</g>
<path d="M88.6422 0.332812L86.9684 1.9053H86.9637V0.332812H86.6057V3.83264H86.9637V1.96889H86.9684L88.7262 3.83264H89.253L87.3806 1.91943L89.154 0.332812H88.6422Z" fill="#35A3D4"/>
<path d="M91.1815 0.332812V3.83264H91.5387V2.17615H93.1779V1.86526H91.5387V0.649194H93.3027V0.332812H91.1815Z" fill="#35A3D4"/>
<mask id="mask1_9_342" style="mask-type:luminance" maskUnits="userSpaceOnUse" x="93" y="0" width="5" height="4">
<path d="M95.5671 0.244359C94.5465 0.270267 93.7882 1.03727 93.7882 2.08141C93.7882 3.1444 94.5732 3.92004 95.6205 3.92004C96.6686 3.92004 97.4536 3.1444 97.4536 2.08141C97.4536 1.03727 96.6953 0.270267 95.6747 0.244359H95.5671ZM94.165 2.08141C94.165 1.26651 94.7169 0.555249 95.6205 0.555249C96.5241 0.555249 97.076 1.26651 97.076 2.08141C97.076 2.8971 96.5241 3.60445 95.6205 3.60445C94.7169 3.60445 94.165 2.8971 94.165 2.08141Z" fill="white"/>
</mask>
<g mask="url(#mask1_9_342)">
<path d="M93.6876 0.143901H97.5517V4.01978H93.6876V0.143901Z" fill="#35A3D4"/>
</g>
<mask id="mask2_9_342" style="mask-type:luminance" maskUnits="userSpaceOnUse" x="98" y="0" width="3" height="4">
<path d="M98.1942 0.332558V3.8316H98.5522V2.19552H99.148L100.122 3.8316H100.559L99.5304 2.16647C100.042 2.11152 100.43 1.78572 100.43 1.26679C100.43 0.584567 99.9229 0.332558 99.2273 0.332558H98.1942ZM98.5522 0.639519H99.1881C99.7196 0.639519 100.072 0.807526 100.072 1.26679C100.072 1.68209 99.7439 1.89013 99.1732 1.89013H98.5522V0.639519Z" fill="white"/>
</mask>
<g mask="url(#mask2_9_342)">
<path d="M98.0952 0.233059H100.658V3.93073H98.0952V0.233059Z" fill="#35A3D4"/>
</g>
<mask id="mask3_9_342" style="mask-type:luminance" maskUnits="userSpaceOnUse" x="100" y="0" width="5" height="4">
<path d="M102.764 0.244909C101.743 0.270816 100.984 1.03861 100.984 2.08196C100.984 3.14494 101.755 3.92059 102.818 3.92059C103.448 3.92059 103.9 3.61991 104.133 3.2682L103.855 3.09078C103.612 3.45191 103.224 3.60971 102.822 3.60971C101.919 3.60971 101.362 2.89843 101.362 2.08196C101.362 1.26706 101.913 0.555798 102.822 0.555798C103.269 0.555798 103.622 0.788178 103.771 1.01428L104.069 0.797598C103.833 0.46787 103.365 0.258255 102.869 0.244909H102.764Z" fill="white"/>
</mask>
<g mask="url(#mask3_9_342)">
<path d="M100.885 0.144145H104.234V4.02002H100.885V0.144145Z" fill="#35A3D4"/>
</g>
<path d="M104.752 0.333056V3.83289H106.991V3.5165H105.109V2.16697H106.812V1.8553H105.109V0.649438H106.932V0.333056H104.752Z" fill="#35A3D4"/>
<mask id="mask4_9_342" style="mask-type:luminance" maskUnits="userSpaceOnUse" x="108" y="1" width="4" height="3">
<path d="M108.9 2.81887C108.9 3.43436 109.354 3.88342 109.962 3.88342C110.568 3.88342 111.022 3.43436 111.022 2.81887C111.022 2.20338 110.568 1.75432 109.962 1.75432C109.354 1.75432 108.9 2.20338 108.9 2.81887ZM109.118 2.81887C109.118 2.34704 109.437 1.9341 109.962 1.9341C110.485 1.9341 110.804 2.34704 110.804 2.81887C110.804 3.29148 110.485 3.7005 109.962 3.7005C109.437 3.7005 109.118 3.29148 109.118 2.81887Z" fill="white"/>
</mask>
<g mask="url(#mask4_9_342)">
<path d="M108.801 1.65447H111.123V3.98376H108.801V1.65447Z" fill="#35A3D4"/>
</g>
<path d="M112.905 1.80559V3.53195H112.9L111.714 1.80559H111.455V3.83185H111.662V2.089H111.668L112.853 3.83185H113.112V1.80559H112.905Z" fill="#35A3D4"/>
<mask id="mask5_9_342" style="mask-type:luminance" maskUnits="userSpaceOnUse" x="77" y="5" width="4" height="4">
<path d="M77.6 7.02653C77.6 8.08873 78.3702 8.86438 79.4332 8.86438C80.0628 8.86438 80.5158 8.5637 80.7489 8.21277L80.471 8.03456C80.2269 8.39569 79.8398 8.55349 79.4371 8.55349C78.5335 8.55349 77.9776 7.84222 77.9776 7.02653C77.9776 6.21085 78.5288 5.49958 79.4371 5.49958C79.8846 5.49958 80.2371 5.73117 80.3862 5.95884L80.6845 5.74138C80.4404 5.40066 79.9497 5.1879 79.4332 5.1879C78.3843 5.1879 77.6 5.96355 77.6 7.02653Z" fill="white"/>
</mask>
<g mask="url(#mask5_9_342)">
<path d="M77.5014 5.08823H80.849V8.96411H77.5014V5.08823Z" fill="#35A3D4"/>
</g>
<path d="M81.3691 5.27732V8.77637H83.3655V8.46077H81.7263V5.27732H81.3691Z" fill="#35A3D4"/>
<path d="M83.9028 8.77627H84.26V5.27722H83.9028V8.77627Z" fill="#35A3D4"/>
<path d="M88.1155 5.27732L86.9387 8.17344H86.9324L85.7415 5.27732H85.1951V8.77637H85.5531V5.73659H85.5617L86.8335 8.77637H87.0227L88.2945 5.73659H88.3039V8.77637H88.6619V5.27732H88.1155Z" fill="#35A3D4"/>
<path d="M90.6993 5.27744L89.1802 8.77649H89.5727L89.9543 7.85718H91.7725L92.1595 8.77649H92.5567L91.0471 5.27744H90.6993ZM90.8634 5.67312L91.6382 7.53137H90.0885L90.8634 5.67312Z" fill="#35A3D4"/>
<path d="M92.3703 5.27744V5.59383H93.5471V8.77649H93.9043V5.59383H95.0812V5.27744H92.3703Z" fill="#35A3D4"/>
<path d="M95.6082 5.27744V8.77649H97.848V8.46089H95.9654V7.11136H97.669V6.79969H95.9654V5.59383H97.7883V5.27744H95.6082Z" fill="#35A3D4"/>
<path d="M98.5301 7.42677H100.665V7.1308H98.5301V7.42677Z" fill="#35A3D4"/>
<mask id="mask6_9_342" style="mask-type:luminance" maskUnits="userSpaceOnUse" x="101" y="5" width="3" height="4">
<path d="M101.583 5.2769V8.77594H101.941V7.14064H102.536L103.511 8.77594H103.948L102.919 7.11082C103.431 7.05586 103.818 6.73006 103.818 6.21113C103.818 5.5289 103.312 5.2769 102.616 5.2769H101.583ZM101.941 5.58308H102.577C103.109 5.58308 103.46 5.75108 103.46 6.21113C103.46 6.62564 103.132 6.83368 102.562 6.83368H101.941V5.58308Z" fill="white"/>
</mask>
<g mask="url(#mask6_9_342)">
<path d="M101.483 5.17739H104.046V8.87506H101.483V5.17739Z" fill="#35A3D4"/>
</g>
<path d="M104.557 5.27744V8.77649H106.797V8.46089H104.914V7.11136H106.618V6.79969H104.914V5.59383H106.736V5.27744H104.557Z" fill="#35A3D4"/>
<path d="M107.5 5.27744V8.77649H109.496V8.46089H107.857V5.27744H107.5Z" fill="#35A3D4"/>
<path d="M111.135 5.27744L109.616 8.77649H110.009L110.391 7.85718H112.209L112.596 8.77649H112.993L111.484 5.27744H111.135ZM111.299 5.67312L112.074 7.53137H110.525L111.299 5.67312Z" fill="#35A3D4"/>
<path d="M112.806 5.27744V5.59383H113.983V8.77649H114.34V5.59383H115.517V5.27744H112.806Z" fill="#35A3D4"/>
<path d="M116.044 5.27744V8.77649H118.284V8.46089H116.401V7.11136H118.104V6.79969H116.401V5.59383H118.224V5.27744H116.044Z" fill="#35A3D4"/>
<mask id="mask7_9_342" style="mask-type:luminance" maskUnits="userSpaceOnUse" x="118" y="5" width="5" height="4">
<path d="M118.987 5.27714V8.77618H120.154C121.032 8.77618 122 8.19367 122 7.02706C122 5.86045 121.032 5.27714 120.154 5.27714H118.987ZM119.344 5.59353H120.054C121.113 5.59353 121.624 6.30558 121.624 7.02706C121.624 7.74853 121.113 8.46059 120.054 8.46059H119.344V5.59353Z" fill="white"/>
</mask>
<g mask="url(#mask7_9_342)">
<path d="M118.886 5.17751H122.1V8.87518H118.886V5.17751Z" fill="#35A3D4"/>
</g>
<path d="M77.7923 10.2217V13.7207H78.1495V12.065H79.7888V11.7533H78.1495V10.5373H79.9128V10.2217H77.7923Z" fill="#35A3D4"/>
<path d="M80.5827 13.7206H80.94V10.2208H80.5827V13.7206Z" fill="#35A3D4"/>
<path d="M84.3787 10.2217V13.201H84.3692L82.3234 10.2217H81.8766V13.7207H82.2339V10.7108H82.2433L84.2899 13.7207H84.7366V10.2217H84.3787Z" fill="#35A3D4"/>
<path d="M86.7745 10.2217L85.2554 13.7207H85.6471L86.0295 12.8014H87.8469L88.2347 13.7207H88.632L87.1223 10.2217H86.7745ZM86.9386 10.6165L87.7134 12.4748H86.1629L86.9386 10.6165Z" fill="#35A3D4"/>
<path d="M91.6531 10.2217V13.201H91.6421L89.5962 10.2217H89.1495V13.7207H89.5075V10.7108H89.5169L91.5636 13.7207H92.0103V10.2217H91.6531Z" fill="#35A3D4"/>
<mask id="mask8_9_342" style="mask-type:luminance" maskUnits="userSpaceOnUse" x="92" y="10" width="4" height="4">
<path d="M92.7586 11.9718C92.7586 13.034 93.5295 13.8104 94.5925 13.8104C95.2229 13.8104 95.6751 13.5082 95.9083 13.158L95.6295 12.9798C95.387 13.341 94.9992 13.4988 94.5964 13.4988C93.6928 13.4988 93.137 12.7867 93.137 11.9718C93.137 11.1561 93.6881 10.4441 94.5964 10.4441C95.0439 10.4441 95.3972 10.6764 95.5455 10.9041L95.8439 10.6866C95.5997 10.3459 95.1091 10.1332 94.5925 10.1332C93.5436 10.1332 92.7586 10.9088 92.7586 11.9718Z" fill="white"/>
</mask>
<g mask="url(#mask8_9_342)">
<path d="M92.6577 10.0332H96.006V13.9091H92.6577V10.0332Z" fill="#35A3D4"/>
</g>
<path d="M96.523 13.7206H96.8802V10.2208H96.523V13.7206Z" fill="#35A3D4"/>
<path d="M98.9181 10.2218L97.3983 13.7209H97.7908L98.1731 12.8016H99.9905L100.378 13.7209H100.775L99.2651 10.2218H98.9181ZM99.0822 10.6167L99.8563 12.475H98.3066L99.0822 10.6167Z" fill="#35A3D4"/>
<path d="M101.294 10.2217V13.7207H103.29V13.4043H101.651V10.2217H101.294Z" fill="#35A3D4"/>
<mask id="mask9_9_342" style="mask-type:luminance" maskUnits="userSpaceOnUse" x="77" y="15" width="4" height="4">
<path d="M77.7937 15.1664V18.6654H78.9611C79.8403 18.6654 80.8091 18.0821 80.8091 16.9163C80.8091 15.7497 79.8403 15.1664 78.9611 15.1664H77.7937ZM78.1517 15.4827H78.8621C79.9196 15.4827 80.4307 16.194 80.4307 16.9163C80.4307 17.6378 79.9196 18.349 78.8621 18.349H78.1517V15.4827Z" fill="white"/>
</mask>
<g mask="url(#mask9_9_342)">
<path d="M77.6928 15.0664H80.9061V18.764H77.6928V15.0664Z" fill="#35A3D4"/>
</g>
<path d="M81.5526 18.6649H81.9098V15.1651H81.5526V18.6649Z" fill="#35A3D4"/>
<mask id="mask10_9_342" style="mask-type:luminance" maskUnits="userSpaceOnUse" x="82" y="15" width="3" height="4">
<path d="M82.7122 16.0361C82.7122 16.6728 83.1943 16.8769 83.6606 17.0198C84.1081 17.1579 84.5194 17.2812 84.5194 17.7703C84.5194 18.2201 84.1026 18.4478 83.7407 18.4478C83.3733 18.4478 83.0898 18.2547 82.936 18.0074L82.6274 18.235C82.8802 18.5813 83.3089 18.7548 83.7352 18.7548C84.2918 18.7548 84.8877 18.4478 84.8877 17.7459C84.8877 17.0441 84.3365 16.8863 83.8396 16.723C83.447 16.5943 83.0749 16.4812 83.0749 16.0361C83.0749 15.5862 83.4769 15.379 83.8255 15.379C84.1575 15.379 84.4009 15.5171 84.5501 15.7299L84.8327 15.5022C84.6639 15.2746 84.3122 15.0775 83.8396 15.0775C83.3238 15.0775 82.7122 15.3641 82.7122 16.0361Z" fill="white"/>
</mask>
<g mask="url(#mask10_9_342)">
<path d="M82.5268 14.9776H84.9856V18.8535H82.5268V14.9776Z" fill="#35A3D4"/>
</g>
<mask id="mask11_9_342" style="mask-type:luminance" maskUnits="userSpaceOnUse" x="85" y="15" width="4" height="4">
<path d="M85.4608 16.9144C85.4608 17.9774 86.2302 18.7531 87.294 18.7531C87.9244 18.7531 88.3766 18.4516 88.6098 18.1007L88.3318 17.9225C88.0877 18.2836 87.7007 18.4422 87.2979 18.4422C86.3943 18.4422 85.8385 17.7309 85.8385 16.9144C85.8385 16.0995 86.3896 15.3875 87.2979 15.3875C87.7454 15.3875 88.0979 15.6199 88.2471 15.8467L88.5454 15.6301C88.3012 15.2886 87.8106 15.0758 87.294 15.0758C86.2451 15.0758 85.4608 15.8522 85.4608 16.9144Z" fill="white"/>
</mask>
<g mask="url(#mask11_9_342)">
<path d="M85.3603 14.9769H88.7078V18.8528H85.3603V14.9769Z" fill="#35A3D4"/>
</g>
<path d="M89.2244 15.1656V18.6654H91.2208V18.349H89.5816V15.1656H89.2244Z" fill="#35A3D4"/>
<mask id="mask12_9_342" style="mask-type:luminance" maskUnits="userSpaceOnUse" x="91" y="15" width="5" height="4">
<path d="M91.4198 16.915C91.4198 17.978 92.2041 18.7536 93.2529 18.7536C94.301 18.7536 95.0852 17.978 95.0852 16.915C95.0852 15.8528 94.301 15.0763 93.2529 15.0763C92.2041 15.0763 91.4198 15.8528 91.4198 16.915ZM91.7974 16.915C91.7974 16.1001 92.3485 15.388 93.2529 15.388C94.1565 15.388 94.7076 16.1001 94.7076 16.915C94.7076 17.7307 94.1565 18.438 93.2529 18.438C92.3485 18.438 91.7974 17.7307 91.7974 16.915Z" fill="white"/>
</mask>
<g mask="url(#mask12_9_342)">
<path d="M91.3189 14.9771H95.1838V18.853H91.3189V14.9771Z" fill="#35A3D4"/>
</g>
<mask id="mask13_9_342" style="mask-type:luminance" maskUnits="userSpaceOnUse" x="95" y="15" width="3" height="4">
<path d="M95.6991 16.0361C95.6991 16.6728 96.1803 16.8769 96.6474 17.0198C97.0941 17.1579 97.5063 17.2812 97.5063 17.7703C97.5063 18.2201 97.0894 18.4478 96.7267 18.4478C96.3593 18.4478 96.0767 18.2547 95.922 18.0074L95.6143 18.235C95.8678 18.5813 96.2949 18.7548 96.7212 18.7548C97.2778 18.7548 97.8737 18.4478 97.8737 17.7459C97.8737 17.0441 97.3226 16.8863 96.8264 16.723C96.4331 16.5943 96.0618 16.4812 96.0618 16.0361C96.0618 15.5862 96.4637 15.379 96.8115 15.379C97.1444 15.379 97.3869 15.5171 97.5361 15.7299L97.8195 15.5022C97.6507 15.2746 97.2982 15.0775 96.8264 15.0775C96.3098 15.0775 95.6991 15.3641 95.6991 16.0361Z" fill="white"/>
</mask>
<g mask="url(#mask13_9_342)">
<path d="M95.5153 14.9775H97.9741V18.8534H95.5153V14.9775Z" fill="#35A3D4"/>
</g>
<mask id="mask14_9_342" style="mask-type:luminance" maskUnits="userSpaceOnUse" x="98" y="15" width="4" height="4">
<path d="M100.889 15.1658V17.3209C100.889 17.8837 100.646 18.438 99.9309 18.438C99.2157 18.438 98.9731 17.8837 98.9731 17.3209V15.1658H98.6151V17.3601C98.6151 17.9434 98.8781 18.7536 99.9309 18.7536C100.984 18.7536 101.247 17.9434 101.247 17.3601V15.1658H100.889Z" fill="white"/>
</mask>
<g mask="url(#mask14_9_342)">
<path d="M98.5142 15.066H101.345V18.8524H98.5142V15.066Z" fill="#35A3D4"/>
</g>
<mask id="mask15_9_342" style="mask-type:luminance" maskUnits="userSpaceOnUse" x="102" y="15" width="3" height="4">
<path d="M102.162 15.166V18.665H102.52V17.029H103.116L104.089 18.665H104.528L103.498 16.9991C104.01 16.945 104.397 16.6192 104.397 16.1002C104.397 15.418 103.892 15.166 103.195 15.166H102.162ZM102.52 15.4722H103.156C103.688 15.4722 104.04 15.6402 104.04 16.1002C104.04 16.5155 103.712 16.7228 103.141 16.7228H102.52V15.4722Z" fill="white"/>
</mask>
<g mask="url(#mask15_9_342)">
<path d="M102.064 15.0663H104.627V18.764H102.064V15.0663Z" fill="#35A3D4"/>
</g>
<path d="M105.14 15.1656V18.6655H107.379V18.3491H105.497V16.9988H107.201V16.6879H105.497V15.482H107.319V15.1656H105.14Z" fill="#35A3D4"/>
<mask id="mask16_9_342" style="mask-type:luminance" maskUnits="userSpaceOnUse" x="107" y="15" width="4" height="4">
<path d="M107.949 16.0361C107.949 16.6728 108.429 16.8769 108.896 17.0198C109.344 17.1579 109.756 17.2812 109.756 17.7703C109.756 18.2201 109.339 18.4478 108.976 18.4478C108.608 18.4478 108.326 18.2547 108.172 18.0074L107.864 18.235C108.118 18.5813 108.544 18.7548 108.972 18.7548C109.527 18.7548 110.123 18.4478 110.123 17.7459C110.123 17.0441 109.572 16.8863 109.075 16.723C108.684 16.5943 108.311 16.4812 108.311 16.0361C108.311 15.5862 108.713 15.379 109.06 15.379C109.393 15.379 109.637 15.5171 109.786 15.7299L110.069 15.5022C109.9 15.2746 109.547 15.0775 109.075 15.0775C108.559 15.0775 107.949 15.3641 107.949 16.0361Z" fill="white"/>
</mask>
<g mask="url(#mask16_9_342)">
<path d="M107.763 14.9776H110.222V18.8535H107.763V14.9776Z" fill="#35A3D4"/>
</g>
<path d="M0 0.476947V3.75382H5.03464V18.2925H9.18764V3.75382H14.2254V0.476947H0Z" fill="#35A3D4"/>
<mask id="mask17_9_342" style="mask-type:luminance" maskUnits="userSpaceOnUse" x="14" y="0" width="16" height="19">
<path d="M19.7434 0.953428C18.5964 1.4017 17.6119 2.02976 16.7884 2.83681C15.9649 3.64307 15.3242 4.60321 14.865 5.71565C14.4065 6.82887 14.1772 8.04965 14.1772 9.37877C14.1772 10.6828 14.3774 11.8902 14.7794 13.0042C15.1806 14.1167 15.756 15.0784 16.5058 15.8893C17.2555 16.7003 18.1685 17.3362 19.2464 17.7963C20.3227 18.2571 21.542 18.4871 22.9009 18.4871C24.3839 18.4871 25.6683 18.2492 26.754 17.7727C27.839 17.2954 28.7418 16.588 29.4633 15.6507L27.2847 13.4462C27.2321 13.4588 26.8733 13.7948 26.8733 13.7948C26.8733 13.7948 26.0734 14.353 25.8324 14.4958C25.5906 14.6379 25.3362 14.7541 25.07 14.8436C24.8039 14.9339 24.515 14.9967 24.2041 15.0328C23.8924 15.0697 23.5486 15.0886 23.1718 15.0886C22.517 15.0886 21.9023 14.9622 21.3284 14.7094C20.7553 14.4566 20.2537 14.0876 19.8235 13.6032C19.394 13.1173 19.0533 12.5206 18.8036 11.8109C18.5532 11.1028 18.4284 10.291 18.4284 9.37877C18.4284 8.50578 18.5532 7.71914 18.8036 7.01807C19.0533 6.31779 19.4011 5.72036 19.8478 5.22655C20.2945 4.73353 20.8283 4.35513 21.4517 4.08977C22.0735 3.82521 22.7627 3.69253 23.5156 3.69253C23.9506 3.69253 24.329 3.7255 24.6524 3.79066C24.9759 3.85504 25.2585 3.93511 25.5003 4.02932C25.7421 4.12274 25.9509 4.22402 26.1275 4.33471C26.3034 4.44384 27.6325 5.17317 27.6325 5.17317L29.6847 2.65388C29.3487 2.30296 28.9632 1.98187 28.5291 1.69296C28.0949 1.40327 27.6192 1.15519 27.1034 0.947145C26.5876 0.739102 26.0325 0.575814 25.439 0.458053C24.8447 0.340293 24.212 0.280624 23.5407 0.280624C22.1559 0.280624 20.8904 0.505155 19.7434 0.953428Z" fill="white"/>
</mask>
<g mask="url(#mask17_9_342)">
<path d="M14.0768 0.181011H29.7828V18.5869H14.0768V0.181011Z" fill="#35A3D4"/>
</g>
<mask id="mask18_9_342" style="mask-type:luminance" maskUnits="userSpaceOnUse" x="31" y="0" width="30" height="19">
<path d="M48.6911 0.476694H31.3521V18.2914H35.5295V11.3585H41.6491V8.16722H35.5295V3.65543H48.6911H51.2112C52.0049 3.65543 52.7138 3.78811 53.3364 4.05268C53.9589 4.31803 54.4857 4.69644 54.9159 5.19024C55.3454 5.68326 55.6751 6.28462 55.9051 6.99354C56.1336 7.70246 56.249 8.49695 56.249 9.37858C56.249 10.2665 56.1336 11.0657 55.9051 11.7746C55.6751 12.4835 55.3454 13.0849 54.9159 13.5779C54.4857 14.0709 53.9589 14.4509 53.3364 14.7147C52.7138 14.9808 52.0049 15.1127 51.2112 15.1127H48.4336V6.08914H44.2555V18.2914H51.2112C52.6031 18.2914 53.8718 18.0701 55.0133 17.6257C56.1563 17.1814 57.1338 16.5619 57.9439 15.7667C58.7549 14.9722 59.3837 14.0301 59.8304 12.942C60.2771 11.8539 60.5001 10.6653 60.5001 9.37858C60.5001 8.09813 60.2771 6.91346 59.8304 5.82615C59.3837 4.73804 58.7549 3.79753 57.9439 3.00697C57.1338 2.2164 56.1563 1.59699 55.0133 1.14871C53.8718 0.700441 52.6031 0.476694 51.2112 0.476694H48.6911Z" fill="white"/>
</mask>
<g mask="url(#mask18_9_342)">
<path d="M31.2535 0.376236H60.6009V18.3912H31.2535V0.376236Z" fill="#35A3D4"/>
</g>
</g>
<defs>
<clipPath id="clip0_9_342">
<rect width="122" height="18.5095" fill="white" transform="translate(0 0.245056)"/>
</clipPath>
</defs>
</svg>
