<?xml version="1.0" encoding="UTF-8"?>
<svg version="1.1" xmlns="http://www.w3.org/2000/svg" width="77" height="60">
<path d="M0 0 C3.8280338 3.05880715 5.07344808 4.56604897 5.65234375 9.4453125 C5.58032917 13.8462035 4.07546105 16.19079773 1.02734375 19.28125 C-5.02419328 24.21116594 -11.77908513 24.28820176 -19.37109375 24.109375 C-25.64028841 23.46380576 -29.85644938 21.24452404 -34.78515625 17.4453125 C-37.31883404 14.04068296 -37.85955058 11.99828957 -37.78515625 7.7578125 C-34.98657577 2.26828926 -31.41948417 -1.16695161 -25.72265625 -3.4921875 C-16.97985471 -5.61107608 -7.50599696 -5.22299132 0 0 Z M-26.78515625 0.7578125 C-26.45515625 2.0778125 -26.12515625 3.3978125 -25.78515625 4.7578125 C-24.13515625 5.0878125 -22.48515625 5.4178125 -20.78515625 5.7578125 C-20.12515625 3.4478125 -19.46515625 1.1378125 -18.78515625 -1.2421875 C-21.98911041 -1.2421875 -23.87915364 -0.49883728 -26.78515625 0.7578125 Z M-12.78515625 -1.2421875 C-12.12515625 1.0678125 -11.46515625 3.3778125 -10.78515625 5.7578125 C-8.80515625 5.0978125 -6.82515625 4.4378125 -4.78515625 3.7578125 C-4.78515625 2.7678125 -4.78515625 1.7778125 -4.78515625 0.7578125 C-7.69115886 -0.49883728 -9.58120209 -1.2421875 -12.78515625 -1.2421875 Z M-16.78515625 2.7578125 C-17.11515625 3.7478125 -17.44515625 4.7378125 -17.78515625 5.7578125 C-16.46515625 5.7578125 -15.14515625 5.7578125 -13.78515625 5.7578125 C-14.11515625 4.7678125 -14.44515625 3.7778125 -14.78515625 2.7578125 C-15.44515625 2.7578125 -16.10515625 2.7578125 -16.78515625 2.7578125 Z M-32.78515625 5.7578125 C-33.09375964 9.69250574 -33.19566846 12.06309952 -31.16015625 15.5078125 C-27.71619516 18.77051248 -24.59287095 20.7578125 -19.78515625 20.7578125 C-20.04520401 16.92860923 -20.46522781 13.37559207 -21.78515625 9.7578125 C-24.28765019 7.87148337 -26.74136977 7.3243787 -29.78515625 6.7578125 C-30.77515625 6.4278125 -31.76515625 6.0978125 -32.78515625 5.7578125 Z M-2.87890625 6.1484375 C-5.56547775 7.10792732 -7.5500146 7.966319 -9.78515625 9.7578125 C-11.16663848 13.38615827 -11.57871728 16.89540595 -11.78515625 20.7578125 C-7.26027462 20.00494595 -4.47123116 18.54284688 -0.78515625 15.7578125 C1.50498028 12.3226077 1.39327348 10.7724815 1.21484375 6.7578125 C-0.73630301 5.53071072 -0.73630301 5.53071072 -2.87890625 6.1484375 Z M-17.78515625 10.7578125 C-17.45515625 12.7378125 -17.12515625 14.7178125 -16.78515625 16.7578125 C-16.12515625 16.7578125 -15.46515625 16.7578125 -14.78515625 16.7578125 C-14.45515625 14.7778125 -14.12515625 12.7978125 -13.78515625 10.7578125 C-15.10515625 10.7578125 -16.42515625 10.7578125 -17.78515625 10.7578125 Z " fill="#0F0F0F" transform="translate(53.78515625,13.2421875)"/>
<path d="M0 0 C19 0 19 0 23 1 C25.04903306 1.07427493 25.04903306 1.07427493 27.1875 0.5 C30.50061189 -0.08899767 33.64074057 -0.06338225 37 0 C37.66 0 38.32 0 39 0 C42 0 45 0 48 0 C48 0.99 48 1.98 48 3 C47.01 3 46.02 3 45 3 C45 5.64 45 8.28 45 11 C44.01 11 43.02 11 42 11 C42 8.36 42 5.72 42 3 C41.34 3.33 40.68 3.66 40 4 C39.855625 4.804375 39.71125 5.60875 39.5625 6.4375 C39 9 39 9 36 11 C33 10.875 33 10.875 30 10 C28.125 7.9375 28.125 7.9375 27 6 C26.67 7.65 26.34 9.3 26 11 C24.68 11 23.36 11 22 11 C21.67 9.02 21.34 7.04 21 5 C19.02 7.97 19.02 7.97 17 11 C14.69 10.67 12.38 10.34 10 10 C9.67 7.69 9.34 5.38 9 3 C8.01 3 7.02 3 6 3 C6 5.64 6 8.28 6 11 C5.01 11 4.02 11 3 11 C3 8.36 3 5.72 3 3 C2.01 3 1.02 3 0 3 C0 2.01 0 1.02 0 0 Z M13 3 C12.67 4.32 12.34 5.64 12 7 C13.32 7 14.64 7 16 7 C16 5.68 16 4.36 16 3 C15.01 3 14.02 3 13 3 Z M33 3 C32.67 4.32 32.34 5.64 32 7 C33.32 7 34.64 7 36 7 C35.67 5.68 35.34 4.36 35 3 C34.34 3 33.68 3 33 3 Z " fill="#0F0F0F" transform="translate(9,40)"/>
<path d="M0 0 C1.65 0.33 3.3 0.66 5 1 C5.99 4.3 6.98 7.6 8 11 C6.68 11 5.36 11 4 11 C4 10.34 4 9.68 4 9 C2.68 9 1.36 9 0 9 C0 9.66 0 10.32 0 11 C-1.32 10.67 -2.64 10.34 -4 10 C-2.68 6.7 -1.36 3.4 0 0 Z " fill="#0D0D0D" transform="translate(59,40)"/>
</svg>
